<!DOCTYPE svg PUBLIC "-//W3C//DTD SVG 20010904//EN" "http://www.w3.org/TR/2001/REC-SVG-20010904/DTD/svg10.dtd">
<svg version="1.0" xmlns="http://www.w3.org/2000/svg" width="1000px" height="1080px" viewBox="0 0 9990 9490" preserveAspectRatio="xMidYMid meet">
<g id="layer101" fill="#21202f" stroke="none">
<path d="M0 4745 l0 -4745 4995 0 4995 0 0 4745 0 4745 -4995 0 -4995 0 0 -4745z"/>
</g>
<g id="layer102" fill="#404040" stroke="none">
<path d="M0 4745 l0 -4745 4995 0 4995 0 0 4745 0 4745 -4995 0 -4995 0 0 -4745z m6105 1515 c3 -5 4 -10 1 -10 -3 0 -8 5 -11 10 -3 6 -4 10 -1 10 3 0 8 -4 11 -10z m-1975 -4 c0 -3 -5 -8 -12 -12 -7 -4 -8 -3 -4 4 7 12 16 16 16 8z m1755 -6 c3 -5 4 -10 1 -10 -3 0 -8 5 -11 10 -3 6 -4 10 -1 10 3 0 8 -4 11 -10z m-2145 -394 c0 -3 -5 -8 -12 -12 -7 -4 -8 -3 -4 4 7 12 16 16 16 8z m2535 -6 c3 -5 4 -10 1 -10 -3 0 -8 5 -11 10 -3 6 -4 10 -1 10 3 0 8 -4 11 -10z m-1790 -190 c3 -5 4 -10 1 -10 -3 0 -8 5 -11 10 -3 6 -4 10 -1 10 3 0 8 -4 11 -10z m1040 -1320 c3 -5 4 -10 1 -10 -3 0 -8 5 -11 10 -3 6 -4 10 -1 10 3 0 8 -4 11 -10z m-1790 -190 c3 -5 4 -10 1 -10 -3 0 -8 5 -11 10 -3 6 -4 10 -1 10 3 0 8 -4 11 -10z m2545 6 c0 -3 -5 -8 -12 -12 -7 -4 -8 -3 -4 4 7 12 16 16 16 8z m-2155 -406 c3 -5 4 -10 1 -10 -3 0 -8 5 -11 10 -3 6 -4 10 -1 10 3 0 8 -4 11 -10z m1765 6 c0 -3 -5 -8 -12 -12 -7 -4 -8 -3 -4 4 7 12 16 16 16 8z"/>
</g>
<g id="layer103" fill="#3f414b" stroke="none">
<path d="M0 4745 l0 -4745 4995 0 4995 0 0 4745 0 4745 -4995 0 -4995 0 0 -4745z m5149 2801 c5 -3 8 -22 6 -41 -4 -38 -5 -38 77 -40 28 0 47 4 46 10 -1 5 2 22 6 37 8 27 9 27 75 22 36 -3 70 -8 75 -12 9 -5 17 -7 96 -17 44 -6 74 -29 67 -50 -20 -52 -20 -52 35 -61 29 -4 57 -8 63 -8 5 -1 12 10 15 23 6 26 55 48 66 30 3 -5 12 -9 21 -9 8 0 29 -6 46 -13 18 -8 58 -22 90 -32 72 -23 91 -45 71 -83 -18 -35 -18 -42 1 -42 9 0 35 -10 57 -21 28 -14 43 -18 46 -10 2 6 8 9 13 6 5 -4 6 2 2 11 -4 12 -3 15 5 10 8 -5 10 -2 6 8 -12 30 38 17 118 -31 44 -27 95 -56 114 -66 22 -11 34 -24 34 -38 0 -30 -19 -61 -33 -53 -19 11 4 -9 46 -40 40 -30 83 -40 94 -23 3 6 1 7 -5 3 -17 -10 -15 9 3 24 8 7 22 9 31 6 33 -12 133 -101 129 -114 -3 -7 0 -10 5 -7 18 11 81 -46 78 -69 -2 -12 -9 -20 -16 -18 -8 1 -11 -2 -7 -8 3 -5 1 -18 -4 -28 -8 -15 -5 -24 14 -42 13 -13 22 -28 18 -34 -3 -6 -3 -8 2 -4 4 4 14 3 20 -2 8 -7 20 -4 38 10 14 11 34 20 45 20 21 0 74 -61 70 -82 -2 -6 3 -12 11 -13 19 0 92 -87 86 -103 -3 -7 0 -10 5 -7 6 3 13 -2 17 -11 4 -12 -3 -25 -25 -44 l-32 -27 38 -42 c34 -38 41 -42 60 -32 37 20 61 13 79 -23 10 -19 39 -70 66 -114 55 -92 59 -117 20 -134 -16 -7 -29 -13 -31 -14 -2 -1 6 -20 17 -43 12 -22 21 -47 21 -56 0 -12 6 -15 23 -9 12 3 27 10 33 15 19 15 50 -22 69 -81 10 -30 26 -73 36 -95 28 -65 30 -121 3 -111 -9 3 -12 2 -9 -5 4 -6 -3 -13 -15 -16 -14 -4 -19 -11 -15 -21 3 -9 9 -35 12 -59 3 -24 7 -43 9 -43 1 0 15 5 29 10 52 20 63 2 80 -120 3 -19 9 -53 15 -75 12 -52 13 -88 0 -80 -5 3 -7 0 -4 -8 3 -10 -5 -18 -24 -25 -32 -11 -46 -50 -35 -102 5 -27 9 -30 44 -30 l39 0 0 -150 0 -150 -39 0 c-35 0 -39 -3 -44 -30 -11 -52 3 -91 35 -102 19 -7 27 -15 24 -25 -3 -8 -1 -11 4 -8 13 8 12 -28 -1 -85 -13 -52 -16 -68 -24 -130 -6 -44 -29 -74 -50 -67 -51 20 -52 19 -58 -26 -3 -23 -9 -50 -12 -59 -4 -10 1 -17 15 -21 12 -3 19 -10 15 -16 -3 -7 0 -8 9 -5 27 10 25 -46 -3 -111 -10 -22 -26 -65 -36 -95 -19 -59 -50 -96 -69 -81 -6 5 -21 12 -33 15 -17 6 -23 3 -23 -9 0 -9 -9 -34 -21 -56 -11 -23 -19 -42 -17 -43 2 -1 15 -7 31 -14 39 -17 35 -42 -20 -134 -27 -44 -56 -95 -66 -114 -18 -36 -42 -43 -79 -23 -19 10 -26 6 -60 -32 l-38 -42 32 -27 c22 -19 29 -32 25 -44 -4 -10 -12 -14 -18 -10 -7 4 -9 3 -6 -3 10 -16 -69 -118 -92 -118 -3 0 -5 -4 -3 -8 5 -16 -51 -77 -70 -77 -11 0 -31 9 -45 20 -18 14 -30 17 -38 10 -6 -5 -16 -6 -20 -2 -5 4 -5 2 -2 -4 4 -6 -5 -21 -18 -34 -19 -18 -22 -27 -14 -42 5 -10 7 -23 4 -28 -4 -6 -1 -9 7 -8 7 2 14 -6 16 -18 3 -23 -60 -80 -78 -69 -5 3 -8 0 -5 -7 4 -13 -96 -102 -129 -114 -9 -3 -23 -1 -31 6 -18 15 -20 34 -3 24 6 -4 8 -3 5 3 -11 17 -54 7 -94 -23 -42 -31 -65 -51 -46 -40 14 8 33 -23 33 -54 0 -13 -10 -25 -27 -33 -16 -6 -50 -27 -78 -45 -27 -17 -53 -32 -58 -32 -5 0 -20 -9 -34 -20 -31 -25 -78 -28 -69 -4 4 10 2 13 -6 8 -8 -5 -9 -2 -5 10 4 9 3 15 -2 11 -5 -3 -11 0 -13 6 -3 8 -18 4 -46 -10 -22 -11 -48 -21 -57 -21 -12 0 -15 -6 -9 -22 3 -13 10 -28 15 -33 4 -6 4 -16 0 -23 -10 -16 -76 -52 -96 -52 -8 0 -23 -4 -33 -10 -38 -22 -118 -46 -141 -42 -15 2 -27 14 -34 33 -8 20 -16 28 -26 24 -8 -3 -35 -9 -58 -12 -39 -5 -43 -8 -37 -27 11 -34 10 -51 -3 -49 -7 2 -10 -4 -7 -12 4 -10 0 -15 -12 -16 -11 0 -30 -2 -44 -5 -14 -2 -36 -6 -50 -8 -14 -2 -49 -9 -78 -16 -68 -15 -97 -8 -110 29 -8 23 -17 29 -48 33 -69 8 -84 1 -84 -43 l0 -39 -150 0 -150 0 0 40 0 40 -61 0 c-58 0 -60 -1 -71 -30 -13 -38 -41 -45 -110 -30 -29 7 -64 14 -78 16 -14 2 -36 6 -50 8 -14 3 -33 5 -44 5 -12 1 -16 6 -12 16 3 8 0 14 -7 12 -13 -2 -14 15 -3 49 6 19 2 22 -37 27 -23 3 -50 9 -58 12 -10 4 -18 -4 -26 -24 -7 -19 -19 -31 -34 -33 -23 -4 -103 20 -141 42 -10 6 -25 10 -33 10 -20 0 -86 36 -96 52 -4 7 -4 17 0 23 5 5 12 20 15 33 6 16 3 22 -9 22 -9 0 -35 10 -57 21 -28 14 -43 18 -46 10 -2 -6 -8 -9 -13 -6 -5 4 -6 -2 -2 -11 4 -12 3 -15 -5 -10 -8 5 -10 2 -6 -8 9 -24 -38 -21 -69 4 -14 11 -29 20 -34 20 -5 0 -31 15 -58 32 -28 18 -62 39 -77 45 -18 8 -28 20 -28 33 0 31 19 62 33 54 19 -11 -4 9 -46 40 -40 30 -83 40 -94 23 -3 -6 -1 -7 5 -3 17 10 15 -9 -3 -24 -8 -7 -22 -9 -31 -6 -33 12 -133 101 -129 114 3 7 0 10 -5 7 -18 -11 -81 46 -78 69 2 12 9 20 16 18 8 -1 11 2 7 8 -3 5 -1 18 4 28 8 15 5 24 -14 42 -13 13 -22 28 -18 34 3 6 3 8 -2 4 -4 -4 -14 -3 -20 2 -8 7 -20 4 -38 -10 -14 -11 -34 -20 -45 -20 -19 0 -75 61 -70 77 2 4 0 8 -3 8 -23 0 -102 102 -92 118 3 6 1 7 -6 3 -6 -4 -14 0 -18 10 -4 12 3 25 25 44 l32 27 -38 42 c-34 38 -41 42 -60 32 -37 -20 -61 -13 -79 23 -10 19 -39 70 -65 114 -56 92 -60 117 -20 134 15 7 28 13 30 14 2 1 -6 20 -17 43 -12 22 -21 47 -21 56 0 12 -6 15 -22 9 -13 -3 -28 -10 -34 -15 -19 -15 -50 22 -69 81 -10 30 -26 73 -36 95 -28 65 -30 121 -3 111 9 -3 12 -2 9 5 -4 6 3 13 15 16 14 4 19 11 15 21 -3 9 -9 36 -12 60 -3 25 -10 41 -17 39 -62 -23 -83 -11 -91 53 -8 62 -11 78 -24 130 -13 57 -14 93 -1 85 5 -3 7 0 4 8 -3 10 5 18 24 25 21 7 31 18 35 41 8 39 -2 92 -17 90 -6 -1 -23 -1 -38 0 l-28 1 0 150 0 150 28 1 c15 1 32 1 38 0 15 -2 25 51 17 90 -4 23 -14 34 -35 41 -19 7 -27 15 -24 25 3 8 1 11 -4 8 -13 -8 -12 28 0 80 6 22 12 56 15 75 17 122 28 140 80 120 14 -5 28 -10 29 -10 2 0 6 19 9 43 3 24 9 50 12 59 4 10 -1 17 -15 21 -12 3 -19 10 -15 16 3 7 0 8 -9 5 -27 -10 -25 46 3 111 10 22 26 65 36 95 19 59 50 96 69 81 6 -5 21 -12 34 -15 16 -6 22 -3 22 9 0 9 9 34 21 56 11 23 19 42 17 43 -2 1 -15 7 -30 14 -40 17 -36 42 20 134 26 44 55 95 65 114 18 36 42 43 79 23 19 -10 26 -6 60 32 l38 42 -32 27 c-22 19 -29 32 -25 44 4 9 11 14 17 11 5 -3 8 0 5 7 -6 16 67 103 86 103 8 1 13 7 11 13 -4 21 49 82 70 82 11 0 31 -9 45 -20 18 -14 30 -17 38 -10 6 5 16 6 20 2 5 -4 5 -2 2 4 -4 6 5 21 18 34 l25 23 -20 32 c-11 18 -20 39 -20 47 0 19 67 71 80 63 5 -3 8 0 5 7 -4 13 96 102 129 114 9 3 23 1 31 -6 18 -15 20 -34 3 -24 -6 4 -8 3 -5 -3 11 -17 54 -7 94 23 42 31 65 51 46 40 -14 -8 -33 23 -33 53 0 14 12 27 34 38 19 10 70 39 114 66 80 48 130 61 118 31 -4 -10 -2 -13 6 -8 8 5 9 2 5 -10 -4 -9 -3 -15 2 -11 5 3 11 0 13 -6 3 -8 18 -4 46 10 22 11 48 21 57 21 12 0 15 6 9 23 -3 12 -10 27 -15 33 -16 19 19 50 78 69 32 10 72 24 90 32 17 7 38 13 46 13 9 0 18 4 21 9 11 18 60 -4 66 -30 3 -13 10 -24 15 -23 6 0 34 4 63 8 55 9 55 9 35 61 -7 21 23 44 67 50 79 10 87 12 96 17 5 4 39 9 75 12 66 5 67 5 75 -22 4 -15 7 -32 6 -37 -1 -6 18 -10 46 -10 81 2 80 2 77 38 -1 17 1 37 6 42 8 11 281 11 298 1z"/>
<path d="M3265 6840 c3 -5 8 -10 11 -10 3 0 2 5 -1 10 -3 6 -8 10 -11 10 -3 0 -2 -4 1 -10z"/>
<path d="M4763 6763 c4 -3 10 -3 14 0 3 4 0 7 -7 7 -7 0 -10 -3 -7 -7z"/>
<path d="M4786 6749 c-16 -4 -33 -6 -37 -4 -4 3 -20 0 -35 -5 -15 -6 -42 -11 -61 -12 -19 -1 -36 -5 -39 -10 -3 -4 -9 -6 -14 -3 -5 3 -19 1 -30 -5 -10 -6 -42 -15 -70 -20 -29 -5 -67 -17 -86 -26 -18 -9 -41 -14 -49 -10 -8 3 -14 1 -12 -4 1 -5 -26 -23 -59 -39 -48 -22 -65 -26 -74 -18 -10 9 -11 9 -5 -2 6 -11 4 -13 -9 -8 -10 4 -15 3 -11 -3 6 -10 -10 -22 -98 -69 -32 -17 -63 -29 -68 -26 -5 4 -6 -2 -2 -11 5 -14 2 -16 -15 -12 -15 4 -19 2 -15 -8 3 -9 -1 -14 -12 -14 -10 0 -13 5 -9 12 4 7 3 8 -5 4 -6 -4 -9 -11 -6 -16 7 -11 -22 -33 -34 -25 -6 3 -9 0 -6 -7 2 -7 -17 -29 -42 -48 -25 -19 -67 -57 -91 -83 -26 -27 -51 -46 -59 -42 -8 3 -11 0 -8 -6 4 -5 -7 -24 -24 -42 -17 -18 -54 -60 -81 -95 -28 -34 -55 -60 -60 -57 -4 3 -6 -5 -2 -17 4 -16 2 -20 -10 -15 -12 4 -14 1 -10 -15 4 -17 2 -20 -11 -15 -11 4 -14 2 -11 -7 5 -12 -20 -58 -88 -165 -15 -25 -28 -50 -28 -56 0 -12 -15 -48 -62 -154 -11 -24 -22 -60 -25 -80 -3 -20 -9 -40 -13 -46 -9 -12 -20 -57 -26 -105 -2 -19 -10 -64 -16 -100 -16 -84 -16 -436 0 -520 6 -36 14 -81 16 -100 6 -48 17 -93 26 -105 4 -5 10 -26 13 -46 3 -20 14 -56 25 -80 47 -106 62 -142 62 -154 0 -6 13 -31 28 -56 68 -107 93 -153 88 -165 -3 -9 0 -11 11 -7 13 5 15 2 11 -15 -4 -16 -2 -19 10 -15 12 5 14 1 10 -15 -4 -12 -2 -20 2 -17 5 3 32 -23 60 -57 27 -35 64 -77 81 -95 17 -18 28 -37 24 -42 -3 -6 0 -9 8 -6 8 4 33 -15 59 -42 24 -26 66 -64 91 -83 25 -19 44 -41 42 -48 -3 -7 0 -10 6 -7 12 8 41 -14 34 -25 -3 -5 0 -12 6 -16 8 -4 9 -3 5 4 -4 7 -1 12 9 12 11 0 15 -5 12 -14 -4 -10 0 -12 15 -8 17 4 20 2 15 -12 -4 -9 -3 -15 2 -11 5 3 36 -9 68 -26 88 -47 104 -59 98 -69 -4 -6 1 -7 11 -3 13 5 15 3 9 -8 -6 -11 -5 -11 5 -2 9 8 26 4 74 -18 33 -16 60 -34 59 -39 -2 -5 4 -7 12 -4 8 4 31 -1 49 -10 19 -9 57 -21 86 -26 28 -5 60 -15 71 -21 11 -6 23 -8 26 -5 4 3 12 1 20 -6 7 -6 16 -8 19 -6 3 3 22 2 42 -3 75 -19 131 -23 322 -23 191 0 247 4 322 23 20 5 39 6 42 3 3 -2 12 0 19 6 8 7 16 9 20 6 3 -3 15 -1 26 5 11 6 43 16 71 21 29 5 67 17 86 26 18 9 42 13 51 10 10 -4 14 -4 10 0 -4 4 21 22 56 40 49 25 65 30 76 21 12 -10 13 -9 6 2 -6 11 -4 13 9 8 10 -4 15 -3 11 3 -6 10 10 22 98 69 32 17 63 29 68 26 5 -4 6 2 2 11 -5 14 -2 16 15 12 15 -4 19 -2 15 8 -3 9 1 14 12 14 10 0 13 -5 9 -12 -4 -7 -3 -8 5 -4 6 4 9 11 6 16 -7 11 22 33 34 25 6 -3 9 0 6 7 -2 7 17 29 42 48 25 19 67 57 91 83 26 27 51 46 59 42 8 -3 11 0 8 6 -4 5 7 24 24 42 17 18 54 60 81 95 28 34 55 60 60 57 4 -3 6 5 2 17 -4 16 -2 20 10 15 12 -4 14 -1 10 15 -4 17 -2 20 11 15 11 -4 14 -2 11 7 -5 12 20 58 88 165 15 25 28 50 28 56 0 7 12 39 26 71 14 33 30 71 37 86 6 15 14 25 17 23 3 -1 6 18 8 43 1 25 6 50 11 56 10 13 21 55 27 106 2 19 10 64 16 100 7 36 12 153 12 260 0 107 -5 224 -12 260 -6 36 -14 81 -16 100 -6 51 -17 93 -27 106 -5 6 -10 31 -11 56 -2 25 -5 44 -8 43 -3 -2 -11 8 -17 23 -7 15 -23 53 -37 86 -14 32 -26 64 -26 71 0 6 -13 31 -28 56 -68 107 -93 153 -88 165 3 9 0 11 -11 7 -13 -5 -15 -2 -11 15 4 16 2 19 -10 15 -12 -5 -14 -1 -10 15 4 12 2 20 -2 17 -5 -3 -32 23 -60 57 -27 35 -64 77 -81 95 -17 18 -28 37 -24 42 3 6 0 9 -8 6 -8 -4 -33 15 -59 42 -24 26 -66 64 -91 83 -25 19 -44 41 -42 48 3 7 0 10 -6 7 -12 -8 -41 14 -34 25 3 5 0 12 -6 16 -8 4 -9 3 -5 -4 4 -7 1 -12 -9 -12 -11 0 -15 5 -12 14 4 10 0 12 -15 8 -17 -4 -20 -2 -15 12 4 9 3 15 -2 12 -10 -6 -129 54 -170 86 -13 10 -29 18 -36 18 -24 0 -125 52 -120 61 4 5 -1 6 -10 3 -8 -4 -31 1 -49 10 -19 9 -57 21 -86 26 -28 5 -60 15 -71 21 -11 6 -23 8 -26 5 -4 -3 -12 -1 -20 6 -7 6 -16 8 -19 6 -3 -3 -24 -1 -47 4 -23 6 -55 12 -72 15 -58 9 -430 10 -459 2z m423 -83 c30 -3 75 -10 100 -15 25 -6 79 -18 119 -27 40 -9 75 -20 78 -25 3 -5 16 -9 29 -9 13 0 27 -4 30 -10 3 -5 13 -10 22 -10 17 0 68 -21 158 -66 78 -39 100 -53 98 -64 -2 -5 5 -6 14 -3 12 5 14 3 8 -7 -5 -9 -4 -11 4 -6 13 8 64 -28 53 -38 -3 -4 1 -4 10 -1 17 7 51 -21 43 -35 -3 -5 0 -12 6 -16 8 -4 9 -3 5 4 -10 17 0 15 32 -5 40 -25 82 -65 77 -73 -3 -4 3 -14 13 -21 16 -13 16 -12 2 6 -14 20 -14 20 7 1 13 -10 20 -23 17 -27 -3 -5 1 -6 8 -4 19 7 82 -60 73 -76 -5 -7 -4 -10 2 -6 6 4 19 -3 29 -16 19 -21 19 -21 -1 -7 -18 14 -19 14 -7 -2 8 -9 19 -15 25 -13 7 3 23 -11 37 -31 14 -19 37 -49 51 -66 15 -16 33 -42 40 -56 7 -15 19 -35 27 -44 8 -9 11 -22 6 -29 -4 -8 -3 -10 4 -5 7 4 19 -8 31 -31 48 -89 101 -204 107 -229 4 -15 13 -39 20 -53 8 -14 14 -35 14 -46 0 -12 4 -25 9 -30 14 -15 42 -151 57 -280 12 -103 7 -363 -10 -460 -22 -134 -36 -194 -52 -224 -8 -14 -14 -36 -14 -48 0 -12 -4 -24 -9 -27 -4 -3 -11 -19 -14 -35 -11 -51 -114 -254 -159 -313 -16 -19 -28 -41 -28 -48 0 -6 -7 -10 -14 -7 -10 4 -13 1 -10 -8 3 -7 -3 -22 -13 -33 -10 -11 -29 -36 -43 -56 -14 -19 -30 -34 -37 -31 -6 2 -17 -4 -25 -13 -12 -16 -11 -16 7 -2 20 14 20 14 1 -7 -10 -13 -23 -20 -29 -16 -6 4 -7 1 -2 -6 9 -16 -54 -83 -73 -76 -7 2 -11 1 -8 -4 3 -4 -4 -17 -17 -27 -21 -19 -21 -19 -7 1 14 18 14 19 -2 7 -9 -8 -15 -19 -13 -25 3 -7 -11 -23 -31 -37 -19 -14 -54 -40 -76 -58 -25 -20 -47 -31 -57 -27 -8 3 -12 3 -9 -1 11 -10 -40 -46 -53 -38 -8 5 -9 3 -4 -6 6 -10 4 -12 -8 -7 -9 3 -16 2 -14 -3 2 -11 -20 -25 -98 -64 -90 -45 -141 -66 -158 -66 -9 0 -19 -4 -22 -10 -3 -5 -17 -10 -30 -10 -13 0 -26 -4 -29 -9 -3 -5 -38 -16 -78 -25 -40 -9 -93 -21 -118 -27 -136 -30 -484 -30 -620 0 -25 6 -78 18 -118 27 -40 9 -75 20 -78 25 -3 5 -16 9 -29 9 -13 0 -27 4 -30 10 -3 6 -13 10 -22 10 -17 0 -68 21 -162 68 -108 54 -122 63 -115 74 4 6 3 8 -3 5 -12 -8 -65 27 -56 37 4 4 0 4 -8 1 -10 -4 -32 7 -57 27 -22 18 -57 44 -76 58 -20 14 -34 30 -31 37 2 8 -2 10 -12 6 -12 -5 -15 -2 -10 10 4 10 2 16 -6 14 -7 -1 -11 3 -10 10 2 7 -3 10 -10 7 -15 -5 -84 62 -74 73 10 9 -23 43 -37 37 -6 -2 -25 14 -41 37 -17 22 -42 54 -56 71 -15 16 -33 42 -40 56 -7 15 -19 35 -27 44 -8 9 -11 22 -6 29 4 8 3 10 -4 5 -7 -4 -19 8 -31 31 -42 80 -99 199 -105 223 -4 14 -14 40 -22 58 -19 41 -60 201 -69 267 -15 112 -17 146 -17 285 0 174 7 247 38 390 9 41 20 79 25 85 5 5 9 18 9 30 0 11 6 32 14 46 7 14 16 38 20 53 14 55 116 253 159 308 15 19 27 41 27 48 0 6 7 10 14 7 10 -4 13 -1 10 8 -3 7 3 22 13 33 10 11 29 36 43 56 14 19 30 34 36 31 15 -4 57 39 47 48 -10 11 59 78 75 72 7 -2 11 -1 8 4 -3 4 4 17 17 27 21 19 21 19 7 -1 -14 -18 -14 -19 2 -7 9 8 15 19 13 25 -3 7 11 23 31 37 19 14 54 40 76 58 25 20 47 31 57 27 8 -3 12 -3 9 1 -11 10 40 46 53 38 8 -5 9 -3 4 6 -6 10 -4 12 8 7 9 -3 16 -2 14 3 -2 11 20 25 98 64 90 45 141 66 158 66 9 0 19 5 22 10 3 6 17 10 30 10 13 0 26 4 29 9 3 5 38 16 78 25 40 9 93 21 118 27 25 5 72 12 104 14 33 3 60 6 62 8 5 4 291 -1 353 -7z m-1429 -529 c0 -2 -10 -12 -22 -23 l-23 -19 19 23 c18 21 26 27 26 19z m-9 -2264 c13 -16 12 -17 -3 -4 -17 13 -22 21 -14 21 2 0 10 -8 17 -17z"/>
<path d="M4802 6509 c-13 -5 -28 -7 -33 -4 -5 3 -17 2 -26 -4 -10 -5 -43 -12 -73 -15 -30 -4 -58 -10 -63 -15 -5 -5 -15 -7 -22 -5 -7 3 -16 1 -20 -5 -3 -6 -16 -11 -28 -11 -12 0 -44 -12 -72 -25 -27 -14 -54 -25 -60 -25 -14 0 -130 -60 -183 -94 -24 -15 -52 -28 -62 -29 -10 -1 -17 -4 -14 -9 8 -12 -104 -91 -117 -82 -7 4 -9 3 -6 -3 8 -13 -16 -35 -33 -31 -7 2 -14 -6 -16 -17 -3 -21 -143 -162 -156 -158 -4 2 -8 0 -7 -5 3 -17 -14 -51 -27 -56 -8 -3 -14 -12 -14 -19 0 -16 -34 -50 -42 -41 -3 3 -5 -3 -5 -13 1 -10 -3 -17 -9 -16 -8 1 -10 -6 -6 -19 4 -17 2 -20 -11 -15 -11 4 -14 2 -11 -8 6 -14 -29 -69 -38 -60 -3 3 -4 -5 -4 -18 1 -12 -4 -21 -11 -20 -7 2 -10 -4 -7 -12 3 -8 -1 -27 -9 -42 -8 -15 -19 -39 -25 -53 -5 -14 -17 -41 -25 -60 -8 -19 -18 -53 -22 -75 -4 -22 -11 -45 -16 -51 -5 -6 -12 -35 -15 -65 -3 -30 -8 -58 -11 -63 -12 -19 -16 -86 -16 -266 0 -180 4 -247 16 -266 3 -5 8 -33 11 -63 3 -30 10 -59 15 -65 5 -6 12 -29 16 -51 4 -22 14 -56 22 -75 8 -19 20 -46 25 -60 6 -14 17 -38 25 -53 8 -15 12 -34 9 -42 -3 -8 0 -14 7 -12 7 1 12 -8 11 -20 0 -13 1 -21 4 -18 9 9 44 -46 38 -60 -3 -9 0 -12 8 -9 15 6 39 -43 30 -58 -4 -6 -3 -8 3 -5 16 10 90 -91 85 -116 -1 -4 2 -6 6 -5 13 5 153 -136 156 -157 2 -11 9 -19 16 -17 16 4 41 -18 34 -29 -3 -5 1 -6 9 -3 8 3 25 -6 38 -20 13 -14 29 -26 35 -26 13 0 46 -35 39 -41 -2 -3 4 -5 15 -6 10 -1 38 -14 62 -29 57 -36 164 -89 210 -104 21 -6 40 -15 43 -20 3 -5 31 -14 63 -20 31 -7 62 -16 68 -21 6 -5 35 -12 65 -15 30 -3 58 -8 63 -11 19 -12 86 -16 266 -16 180 0 247 4 266 16 5 3 34 8 64 11 30 4 58 10 63 15 5 5 15 7 22 5 7 -3 16 -1 20 5 3 6 15 11 26 11 11 0 45 11 75 25 30 14 58 25 62 25 11 0 132 63 180 94 24 15 52 28 62 29 10 1 17 4 14 8 -7 12 104 91 117 83 7 -4 9 -3 6 3 -8 13 16 35 33 31 7 -2 14 6 16 17 3 21 143 162 156 157 4 -1 7 1 6 5 -2 14 15 48 29 56 7 4 13 14 13 21 0 16 34 48 42 40 3 -3 5 3 5 13 -1 10 3 17 9 16 8 -1 10 6 6 19 -4 17 -2 20 11 15 11 -4 14 -2 11 8 -6 14 29 69 38 60 3 -3 4 5 4 18 -1 12 4 21 11 20 7 -2 10 4 7 12 -3 8 1 27 9 42 8 15 19 39 25 53 5 14 17 41 25 60 8 19 18 53 22 75 4 22 11 45 16 51 5 6 12 35 15 65 3 30 8 58 11 63 12 19 16 86 16 266 0 180 -4 247 -16 266 -3 5 -8 33 -11 63 -3 30 -10 59 -15 65 -5 6 -12 29 -16 51 -4 22 -14 56 -22 75 -8 19 -20 46 -25 60 -6 14 -17 38 -25 53 -8 15 -12 34 -9 42 3 8 0 14 -7 12 -7 -1 -12 8 -11 20 0 13 -1 21 -4 18 -9 -9 -44 46 -38 60 3 9 0 12 -8 9 -15 -6 -39 43 -30 58 4 6 3 8 -3 5 -16 -10 -90 91 -85 115 1 5 -2 7 -6 5 -13 -4 -153 137 -156 158 -2 11 -9 19 -16 17 -17 -4 -41 18 -33 31 3 6 1 7 -6 3 -13 -9 -125 70 -117 82 3 5 -4 8 -14 9 -10 1 -38 14 -62 29 -57 36 -164 89 -210 104 -21 6 -40 15 -43 20 -3 5 -31 14 -63 20 -31 7 -62 16 -68 21 -6 5 -35 12 -65 15 -30 3 -58 9 -63 12 -17 10 -68 13 -256 17 -102 1 -196 -1 -208 -6z m364 -84 c91 -10 119 -14 169 -28 28 -8 72 -20 99 -26 60 -14 156 -59 156 -72 0 -6 -4 -8 -9 -5 -5 4 -7 -2 -4 -12 2 -9 -3 -31 -11 -47 -9 -17 -16 -37 -16 -45 0 -8 -7 -28 -15 -44 -8 -15 -15 -33 -15 -38 0 -6 -7 -26 -16 -46 -9 -21 -20 -47 -25 -59 -5 -13 -13 -33 -18 -45 -5 -13 -17 -43 -26 -68 -9 -25 -27 -67 -40 -95 -80 -175 -87 -244 -33 -298 10 -10 15 -23 12 -29 -4 -6 -3 -8 4 -4 6 3 26 -2 44 -13 36 -19 90 -17 149 7 15 6 30 8 34 4 3 -3 4 0 1 8 -3 10 15 32 50 60 30 25 80 66 111 92 31 26 60 45 65 42 4 -3 5 2 2 11 -5 12 -2 16 12 13 12 -2 18 2 16 11 -4 19 19 43 35 37 8 -4 11 -1 7 5 -8 14 37 61 53 55 7 -3 12 -1 10 3 -4 15 67 102 80 97 7 -3 10 1 7 8 -3 7 4 20 15 30 18 17 19 17 26 -3 3 -12 15 -26 26 -31 10 -6 19 -17 19 -25 0 -8 6 -18 13 -22 26 -16 79 -104 72 -121 -3 -9 -3 -13 1 -9 9 9 46 -42 69 -95 55 -134 55 -133 -2 -131 -7 1 -11 -3 -8 -7 8 -12 -134 -82 -156 -77 -10 3 -17 1 -13 -4 3 -5 -8 -14 -23 -21 -15 -6 -50 -21 -78 -34 -27 -12 -70 -30 -95 -39 -85 -32 -139 -54 -173 -72 -16 -8 -37 -13 -48 -10 -10 3 -17 1 -13 -4 3 -5 1 -9 -4 -9 -6 0 -24 -21 -41 -47 -26 -38 -31 -56 -31 -104 0 -32 5 -61 11 -64 6 -4 8 -14 4 -23 -3 -9 -3 -13 1 -9 4 3 23 -6 43 -22 35 -28 70 -36 201 -47 53 -4 532 -6 551 -2 9 2 12 -11 10 -47 -2 -27 -5 -53 -8 -58 -2 -4 -7 -29 -10 -55 -3 -26 -9 -55 -15 -65 -5 -10 -7 -21 -4 -24 3 -4 2 -11 -3 -17 -4 -6 -11 -28 -14 -49 -5 -34 -20 -71 -60 -154 -6 -13 -14 -23 -19 -23 -5 0 -7 4 -4 9 4 5 -2 7 -12 4 -9 -2 -31 3 -47 11 -17 9 -36 16 -43 16 -13 0 -67 21 -104 41 -10 5 -26 9 -36 9 -9 0 -26 6 -37 13 -11 7 -38 19 -60 26 -35 12 -67 25 -180 75 -123 55 -192 68 -247 47 -40 -15 -81 -78 -86 -132 -5 -58 10 -101 54 -149 135 -149 195 -221 189 -230 -3 -5 0 -7 7 -5 17 7 62 -40 54 -54 -4 -6 -1 -9 7 -6 17 7 51 -30 42 -45 -3 -6 -1 -9 7 -8 7 2 12 -2 11 -9 -2 -7 3 -10 10 -8 6 3 39 -19 72 -49 56 -49 58 -54 37 -60 -12 -4 -27 -16 -32 -27 -6 -10 -16 -19 -23 -19 -7 0 -23 -12 -36 -25 -13 -14 -29 -25 -35 -25 -7 0 -21 -9 -32 -21 -10 -11 -26 -18 -36 -16 -9 3 -16 0 -15 -5 2 -9 -39 -33 -165 -95 -53 -26 -47 -34 -164 222 -35 77 -64 146 -64 153 0 7 -7 24 -16 37 -9 14 -14 34 -11 45 3 11 1 17 -4 14 -5 -3 -12 3 -15 13 -3 10 -10 27 -14 38 -68 163 -102 195 -206 195 -55 0 -59 -2 -99 -45 -44 -47 -47 -57 -61 -215 -4 -55 -7 -530 -2 -551 2 -8 -2 -13 -9 -12 -6 1 -33 5 -60 8 -90 10 -118 15 -168 28 -27 8 -72 20 -99 26 -60 14 -156 59 -156 72 0 6 4 8 9 5 5 -4 7 2 4 12 -2 9 3 31 11 47 9 17 16 37 16 45 0 8 7 28 15 44 8 15 15 33 15 38 0 6 7 26 16 46 20 46 29 67 45 112 11 32 38 97 73 175 36 79 61 153 61 180 1 36 -18 87 -39 104 -9 7 -13 18 -9 24 3 5 1 7 -4 4 -6 -4 -24 0 -39 8 -37 19 -102 19 -147 0 -19 -8 -37 -12 -40 -9 -3 3 -4 -3 -4 -13 1 -11 -4 -18 -15 -17 -10 1 -16 -1 -13 -5 6 -11 -184 -173 -195 -166 -6 3 -7 -1 -4 -10 5 -12 2 -16 -12 -13 -12 2 -18 -2 -16 -11 4 -19 -19 -43 -35 -37 -8 4 -11 1 -7 -5 8 -14 -37 -61 -53 -55 -7 3 -12 1 -10 -3 4 -15 -67 -102 -80 -97 -7 3 -10 -1 -7 -8 3 -7 -4 -20 -15 -30 -18 -17 -19 -17 -26 3 -3 12 -15 26 -26 31 -10 6 -19 17 -19 25 0 8 -6 18 -13 22 -24 15 -79 104 -73 119 3 9 1 12 -4 9 -14 -9 -12 8 3 25 10 12 9 12 -5 1 -19 -14 -33 2 -64 74 -9 22 -21 49 -25 60 -5 11 -10 31 -11 45 -3 21 1 25 24 25 14 -1 24 3 22 7 -5 8 196 108 218 108 8 0 18 4 23 9 9 8 59 29 193 82 56 22 79 32 105 46 16 8 37 13 48 10 10 -3 17 -1 13 4 -3 5 -1 9 4 9 6 0 24 21 41 47 26 38 31 56 31 104 0 32 -5 61 -11 64 -6 4 -8 14 -4 23 3 9 3 13 -1 9 -4 -3 -23 6 -43 22 -35 28 -70 36 -201 47 -56 4 -531 6 -550 2 -10 -2 -13 9 -11 47 2 27 5 53 8 58 2 4 7 29 10 55 3 26 9 55 15 65 5 10 7 21 4 24 -3 4 -2 11 3 17 4 6 11 28 14 49 5 34 20 71 60 155 6 12 14 22 19 22 5 0 7 -4 4 -9 -4 -5 3 -7 13 -4 11 3 34 -2 52 -11 18 -9 36 -16 42 -16 9 0 67 -24 99 -41 10 -5 24 -9 32 -9 16 0 109 -38 281 -115 105 -46 147 -57 201 -53 48 4 60 9 86 39 16 19 34 44 39 57 13 34 11 95 -6 135 -8 19 -11 38 -7 42 4 5 1 5 -6 1 -7 -5 -23 5 -40 26 -15 18 -62 72 -105 120 -43 47 -76 92 -75 100 2 7 -3 12 -11 10 -18 -4 -43 18 -37 34 3 7 0 11 -7 8 -7 -2 -24 7 -36 20 -21 22 -22 28 -10 43 13 16 12 17 -3 4 -16 -12 -22 -9 -19 11 0 4 -5 5 -12 3 -6 -3 -39 19 -72 49 -33 31 -55 55 -48 56 11 0 28 13 96 73 17 15 37 27 43 27 6 0 19 9 30 21 10 11 26 18 36 16 10 -3 16 -1 12 4 -8 13 10 11 26 -3 12 -11 12 -10 1 4 -14 19 2 33 74 63 22 10 52 24 67 31 48 25 62 17 61 -33 0 -7 4 -11 10 -10 10 2 110 -203 143 -293 9 -25 23 -58 31 -73 8 -16 13 -37 10 -48 -3 -10 -1 -16 4 -13 5 3 12 -3 15 -13 3 -10 10 -27 14 -38 68 -163 102 -195 206 -195 55 0 59 2 99 45 44 47 47 57 61 215 3 45 7 528 3 546 -3 17 1 25 9 20 5 -3 31 -8 58 -11z"/>
<path d="M4454 5748 c-4 -7 -3 -8 4 -4 12 7 16 16 8 16 -3 0 -8 -5 -12 -12z"/>
<path d="M5045 5630 c3 -5 8 -10 11 -10 3 0 2 5 -1 10 -3 6 -8 10 -11 10 -3 0 -2 -4 1 -10z"/>
<path d="M5744 5548 c-4 -7 -3 -8 4 -4 7 4 12 9 12 12 0 8 -9 4 -16 -8z"/>
<path d="M4945 5374 c-26 -28 -33 -78 -14 -89 6 -4 8 -13 6 -19 -6 -14 6 -18 63 -18 57 0 69 4 63 18 -2 6 0 15 6 19 20 12 12 62 -15 89 -35 34 -77 34 -109 0z"/>
<path d="M4885 5220 c3 -5 8 -10 11 -10 3 0 2 5 -1 10 -3 6 -8 10 -11 10 -3 0 -2 -4 1 -10z"/>
<path d="M4650 5167 c-36 -18 -45 -81 -17 -118 39 -53 102 -45 131 16 10 20 15 39 12 42 -3 4 0 13 7 21 9 13 9 14 0 8 -7 -4 -13 -3 -13 3 0 13 -53 41 -77 41 -10 0 -29 -6 -43 -13z"/>
<path d="M5258 5165 c-16 -9 -28 -20 -28 -26 0 -6 -6 -7 -12 -3 -10 6 -10 5 -1 -8 7 -8 10 -17 7 -21 -3 -3 2 -22 12 -42 29 -62 92 -69 132 -16 17 23 19 35 12 66 -5 21 -13 42 -18 47 -17 17 -76 19 -104 3z"/>
<path d="M4366 5052 c-3 -5 1 -9 9 -9 8 0 12 4 9 9 -3 4 -7 8 -9 8 -2 0 -6 -4 -9 -8z"/>
<path d="M5636 4913 c-6 -14 -5 -15 5 -6 7 7 10 15 7 18 -3 3 -9 -2 -12 -12z"/>
<path d="M4384 4818 c-4 -7 -3 -8 4 -4 12 7 16 16 8 16 -3 0 -8 -5 -12 -12z"/>
<path d="M4780 4815 c-26 -14 -49 -51 -50 -78 0 -29 54 -77 87 -77 16 0 35 -6 43 -12 12 -11 12 -10 1 5 -7 9 -9 17 -4 17 4 0 17 16 27 35 17 32 18 36 3 68 -20 41 -71 61 -107 42z"/>
<path d="M5162 4816 c-22 -8 -39 -23 -49 -44 -15 -30 -14 -35 3 -67 10 -19 23 -35 27 -35 5 0 3 -8 -4 -17 -11 -15 -11 -16 1 -5 8 6 27 12 43 12 32 0 87 47 87 75 0 27 -27 71 -52 82 -16 7 -33 7 -56 -1z"/>
<path d="M4244 4448 c-4 -7 -3 -8 4 -4 12 7 16 16 8 16 -3 0 -8 -5 -12 -12z"/>
<path d="M4945 4370 c3 -5 8 -10 11 -10 3 0 2 5 -1 10 -3 6 -8 10 -11 10 -3 0 -2 -4 1 -10z"/>
<path d="M5534 4248 c-4 -7 -3 -8 4 -4 7 4 12 9 12 12 0 8 -9 4 -16 -8z"/>
<path d="M6015 6300 c3 -5 8 -10 11 -10 3 0 2 5 -1 10 -3 6 -8 10 -11 10 -3 0 -2 -4 1 -10z"/>
<path d="M4763 3233 c4 -3 10 -3 14 0 3 4 0 7 -7 7 -7 0 -10 -3 -7 -7z"/>
<path d="M3833 2793 c4 -3 10 -3 14 0 3 4 0 7 -7 7 -7 0 -10 -3 -7 -7z"/>
<path d="M6153 2793 c4 -3 10 -3 14 0 3 4 0 7 -7 7 -7 0 -10 -3 -7 -7z"/>
</g>
<g id="layer104" fill="#41404e" stroke="none">
<path d="M0 4745 l0 -4745 4995 0 4995 0 0 4745 0 4745 -4995 0 -4995 0 0 -4745z m5150 2800 c5 -3 8 -16 5 -28 -3 -12 -1 -28 3 -35 11 -17 123 -25 121 -8 -1 6 1 24 6 39 7 28 8 28 74 21 36 -3 70 -8 75 -12 9 -5 17 -7 96 -17 44 -6 74 -29 67 -50 -20 -52 -20 -52 35 -61 29 -4 57 -8 63 -8 5 -1 12 10 15 23 5 23 51 47 64 34 2 -3 51 -20 108 -39 102 -34 147 -65 130 -88 -27 -34 -21 -45 36 -71 34 -16 58 -22 60 -15 2 5 7 8 11 6 4 -3 7 5 7 17 -2 41 42 31 159 -37 100 -59 110 -67 109 -93 0 -15 -4 -35 -8 -44 -5 -11 4 -24 29 -43 34 -26 91 -44 79 -24 -7 12 15 38 31 38 8 0 61 -39 120 -87 80 -66 105 -92 103 -108 -2 -11 -9 -19 -16 -17 -8 1 -11 -2 -7 -8 3 -5 1 -18 -4 -28 -8 -15 -3 -26 28 -56 l37 -37 26 21 c15 11 35 20 46 20 22 0 74 -61 70 -82 -2 -7 2 -12 9 -11 14 3 113 -111 113 -129 0 -7 -11 -24 -25 -38 l-25 -26 31 -43 c23 -30 36 -40 48 -35 9 4 28 9 43 11 23 4 30 0 45 -30 10 -20 39 -71 66 -115 55 -92 59 -117 20 -134 -16 -7 -29 -13 -31 -14 -2 -1 6 -20 17 -43 12 -22 21 -47 21 -56 0 -12 6 -15 23 -9 12 3 27 10 33 15 19 15 50 -22 69 -81 10 -30 26 -73 36 -95 32 -76 29 -113 -11 -128 -20 -8 -29 -16 -25 -26 3 -8 9 -34 12 -58 3 -24 7 -43 9 -43 1 0 15 5 29 10 52 20 63 2 80 -120 3 -19 9 -53 15 -75 12 -52 13 -88 0 -80 -5 3 -7 0 -4 -8 3 -10 -5 -18 -24 -25 -21 -7 -31 -18 -35 -41 -9 -42 2 -93 19 -87 7 3 24 2 39 -2 l27 -8 0 -144 0 -144 -27 -8 c-15 -4 -32 -5 -39 -2 -17 6 -28 -45 -19 -87 4 -23 14 -34 35 -41 19 -7 27 -15 24 -25 -3 -8 -1 -11 4 -8 13 8 12 -28 -1 -85 -13 -52 -16 -68 -24 -130 -6 -44 -29 -74 -50 -67 -51 20 -52 19 -58 -26 -3 -23 -9 -50 -12 -58 -4 -10 5 -18 25 -26 40 -15 43 -52 11 -128 -10 -22 -26 -65 -36 -95 -19 -59 -50 -96 -69 -81 -6 5 -21 12 -33 15 -17 6 -23 3 -23 -9 0 -9 -9 -34 -21 -56 -11 -23 -19 -42 -17 -43 2 -1 15 -7 31 -14 39 -17 35 -42 -20 -134 -27 -44 -56 -95 -66 -115 -15 -30 -22 -34 -45 -30 -15 2 -34 7 -43 11 -12 5 -25 -5 -48 -35 l-31 -43 25 -26 c14 -14 25 -29 25 -33 0 -21 -102 -142 -119 -142 -3 0 -5 -4 -3 -8 5 -16 -51 -77 -70 -77 -11 0 -31 9 -46 20 l-26 21 -37 -37 c-31 -30 -36 -41 -28 -56 5 -10 7 -23 4 -28 -4 -6 -1 -9 7 -8 7 2 14 -6 16 -17 2 -16 -23 -42 -103 -108 -59 -48 -112 -87 -120 -87 -16 0 -38 26 -31 38 12 20 -45 2 -79 -24 -25 -19 -34 -32 -29 -43 4 -9 9 -28 12 -43 3 -23 -1 -30 -24 -40 -16 -7 -51 -28 -79 -46 -27 -17 -53 -32 -58 -32 -5 0 -20 -9 -34 -20 -31 -25 -78 -28 -69 -4 3 9 2 12 -5 9 -6 -4 -13 2 -16 14 -7 26 -4 26 -63 -4 -49 -25 -62 -49 -40 -71 17 -17 -15 -49 -62 -63 -24 -7 -52 -17 -63 -22 -120 -52 -161 -53 -178 -8 -8 20 -16 28 -26 24 -8 -3 -35 -9 -59 -12 -25 -3 -41 -10 -39 -17 23 -62 11 -83 -53 -91 -59 -8 -75 -11 -138 -25 -69 -15 -97 -8 -110 30 -11 29 -13 30 -70 30 l-60 0 2 -38 1 -37 -155 0 -155 0 1 38 2 37 -60 0 c-57 0 -59 -1 -70 -30 -13 -38 -41 -45 -110 -30 -63 14 -79 17 -138 25 -44 6 -74 29 -67 50 20 51 19 52 -26 58 -23 3 -50 9 -58 12 -10 4 -18 -4 -26 -24 -17 -45 -58 -44 -178 8 -11 5 -39 15 -63 22 -47 14 -79 46 -62 63 22 22 9 46 -40 71 -59 30 -56 30 -63 4 -3 -12 -10 -18 -16 -14 -7 3 -8 0 -5 -9 9 -24 -38 -21 -69 4 -14 11 -29 20 -34 20 -5 0 -31 15 -58 32 -28 18 -63 39 -79 46 -23 10 -27 17 -24 40 3 15 8 34 12 43 5 11 -4 24 -29 43 -34 26 -91 44 -79 24 7 -12 -15 -38 -31 -38 -8 0 -61 39 -120 87 -80 66 -105 92 -103 108 2 11 9 19 16 17 8 -1 11 2 7 8 -3 5 -1 18 4 28 8 15 3 26 -28 56 l-37 37 -26 -21 c-15 -11 -35 -20 -46 -20 -19 0 -75 61 -70 77 2 4 0 8 -3 8 -17 0 -119 121 -119 142 0 4 11 19 25 33 l25 26 -31 43 c-23 30 -36 40 -48 35 -9 -4 -28 -9 -43 -11 -23 -4 -30 0 -45 30 -10 20 -39 71 -65 115 -56 92 -60 117 -20 134 15 7 28 13 30 14 2 1 -6 20 -17 43 -12 22 -21 47 -21 56 0 12 -6 15 -22 9 -13 -3 -28 -10 -34 -15 -19 -15 -50 22 -69 81 -10 30 -26 73 -36 95 -32 76 -29 113 11 128 20 8 29 16 25 26 -3 8 -9 35 -12 59 -3 25 -10 41 -17 39 -62 -23 -83 -11 -91 53 -8 62 -11 78 -24 130 -13 57 -14 93 -1 85 5 -3 7 0 4 8 -3 10 5 18 24 25 21 7 31 18 35 38 6 32 -2 96 -12 90 -4 -3 -21 -1 -40 2 l-33 7 0 145 0 145 33 7 c19 3 36 5 40 2 10 -6 18 58 12 90 -4 20 -14 31 -35 38 -19 7 -27 15 -24 25 3 8 1 11 -4 8 -13 -8 -12 28 0 80 6 22 12 56 15 75 17 122 28 140 80 120 14 -5 28 -10 29 -10 2 0 6 19 9 43 3 24 9 50 12 58 4 10 -5 18 -25 26 -40 15 -43 52 -11 128 10 22 26 65 36 95 19 59 50 96 69 81 6 -5 21 -12 34 -15 16 -6 22 -3 22 9 0 9 9 34 21 56 11 23 19 42 17 43 -2 1 -15 7 -30 14 -40 17 -36 42 20 134 26 44 55 95 65 115 15 30 22 34 45 30 15 -2 34 -7 43 -11 12 -5 25 5 48 35 l31 43 -25 26 c-14 14 -25 31 -25 38 0 18 99 132 113 129 7 -1 11 4 9 11 -4 21 48 82 70 82 11 0 31 -9 46 -20 l26 -21 37 37 c30 30 36 41 28 55 -5 10 -14 21 -19 24 -6 3 -10 16 -10 29 0 16 29 46 106 109 58 48 111 87 119 87 16 0 38 -26 31 -38 -12 -20 45 -2 79 24 25 19 34 32 29 43 -4 9 -8 29 -8 44 -1 26 9 34 109 93 117 68 161 78 159 37 0 -12 3 -20 7 -17 4 2 9 -1 11 -6 2 -7 26 -1 60 15 56 26 56 26 42 53 -22 44 -1 62 120 104 59 20 110 39 113 41 12 13 58 -11 63 -34 3 -13 10 -24 15 -23 6 0 34 4 63 8 55 9 55 9 35 61 -7 21 23 44 67 50 79 10 87 12 96 17 5 4 39 9 75 12 66 7 67 7 74 -21 5 -15 7 -33 7 -39 -2 -7 17 -11 54 -9 59 2 78 15 70 49 -3 11 -1 25 4 30 9 12 281 13 300 1z"/>
<path d="M3484 6978 c-4 -7 -3 -8 4 -4 12 7 16 16 8 16 -3 0 -8 -5 -12 -12z"/>
<path d="M6505 6980 c3 -5 8 -10 11 -10 3 0 2 5 -1 10 -3 6 -8 10 -11 10 -3 0 -2 -4 1 -10z"/>
<path d="M4845 6754 c-16 -2 -68 -10 -115 -16 -102 -14 -104 -14 -110 -17 -3 -2 -14 -4 -25 -6 -26 -5 -164 -45 -190 -56 -11 -4 -56 -24 -99 -43 -43 -20 -83 -36 -89 -36 -6 0 -18 -6 -26 -14 -9 -7 -41 -26 -71 -42 -30 -15 -65 -37 -77 -47 -12 -11 -29 -17 -37 -14 -11 4 -13 1 -9 -10 5 -13 2 -15 -15 -11 -12 4 -20 3 -17 -2 3 -4 -21 -29 -53 -56 -31 -26 -82 -72 -114 -102 -36 -35 -60 -52 -69 -47 -8 5 -10 4 -5 -4 5 -7 -5 -25 -23 -44 -17 -18 -54 -60 -81 -95 -28 -34 -55 -60 -60 -57 -6 3 -7 0 -4 -8 3 -8 -16 -49 -43 -90 -91 -144 -104 -167 -113 -194 -8 -27 -24 -68 -60 -148 -10 -22 -21 -58 -25 -80 -4 -22 -11 -45 -15 -50 -5 -6 -19 -69 -31 -140 -19 -106 -23 -167 -23 -325 0 -158 4 -219 23 -325 12 -71 26 -134 31 -140 4 -5 11 -28 15 -50 4 -22 15 -58 25 -80 36 -80 52 -121 60 -148 9 -27 22 -50 113 -194 27 -41 46 -82 43 -90 -3 -8 -2 -11 4 -8 5 3 32 -23 60 -57 27 -35 64 -77 81 -95 18 -19 28 -37 23 -44 -5 -8 -3 -9 5 -4 9 5 33 -12 69 -47 32 -30 83 -76 114 -102 32 -27 56 -52 53 -56 -3 -5 5 -6 17 -2 17 4 20 2 15 -11 -4 -11 -2 -14 9 -10 8 3 25 -3 37 -14 12 -10 47 -32 77 -47 30 -16 62 -35 71 -42 8 -8 20 -14 26 -14 6 0 46 -16 89 -36 43 -19 88 -39 99 -43 26 -11 164 -51 190 -56 11 -2 22 -4 25 -6 3 -1 10 -3 15 -4 156 -25 215 -30 365 -30 150 0 209 5 365 30 6 1 12 3 15 4 3 2 14 4 25 6 26 5 164 45 190 56 11 4 56 24 99 43 43 20 83 36 89 36 6 0 18 6 26 14 9 7 41 26 71 42 30 15 65 37 77 47 12 11 29 17 37 14 11 -4 13 -1 9 10 -5 13 -2 15 15 11 12 -4 20 -2 17 2 -3 5 23 32 57 60 93 77 226 209 286 285 29 36 57 63 62 60 5 -3 7 0 4 8 -3 8 16 49 43 90 91 144 104 167 113 194 8 27 24 68 60 148 10 22 21 58 25 80 4 22 11 45 15 50 5 6 19 69 31 140 33 185 33 465 0 650 -12 71 -26 134 -31 140 -4 5 -11 28 -15 50 -4 22 -15 58 -25 80 -36 80 -52 121 -60 148 -9 27 -22 50 -113 194 -27 41 -46 82 -43 90 3 8 1 11 -4 8 -5 -3 -33 24 -62 60 -60 76 -193 208 -286 285 -34 28 -60 55 -57 60 3 4 -5 6 -17 2 -17 -4 -20 -2 -15 11 4 11 2 14 -9 10 -8 -3 -25 3 -37 14 -12 10 -47 32 -77 48 -30 15 -66 37 -79 47 -13 10 -29 18 -36 18 -7 0 -43 14 -81 30 -38 17 -78 35 -89 39 -25 11 -163 51 -190 56 -11 2 -20 4 -20 5 0 1 -11 4 -25 5 -14 2 -54 9 -90 15 -67 11 -372 22 -425 14z m364 -88 c30 -3 75 -10 100 -15 25 -6 79 -18 119 -27 40 -9 75 -20 78 -25 3 -5 16 -9 29 -9 13 0 27 -4 30 -10 3 -5 13 -10 22 -10 39 0 268 -116 356 -180 26 -19 62 -45 80 -58 49 -36 76 -64 74 -76 -1 -6 6 -10 16 -8 15 3 22 -8 18 -30 0 -4 5 -5 12 -2 17 6 81 -61 72 -75 -4 -7 -1 -10 7 -9 7 2 12 -2 11 -9 -2 -7 3 -10 11 -7 7 3 27 -14 47 -41 19 -26 46 -60 60 -77 15 -16 33 -42 40 -56 7 -15 21 -36 30 -47 9 -11 26 -38 38 -60 52 -101 101 -206 107 -231 4 -15 13 -39 20 -53 8 -14 14 -35 14 -46 0 -12 4 -25 9 -30 5 -6 16 -44 25 -85 31 -144 38 -218 38 -390 0 -128 -4 -195 -16 -265 -23 -135 -39 -205 -48 -211 -4 -3 -8 -15 -8 -27 0 -12 -6 -34 -14 -48 -7 -14 -16 -38 -20 -53 -20 -81 -162 -338 -225 -407 -9 -9 -31 -38 -50 -64 -20 -27 -40 -44 -47 -41 -8 3 -13 0 -11 -7 1 -7 -4 -11 -11 -9 -8 1 -11 -2 -7 -9 9 -14 -55 -81 -72 -75 -7 3 -12 2 -12 -2 4 -22 -3 -33 -18 -30 -11 2 -17 -3 -16 -12 1 -8 -14 -26 -33 -40 -19 -14 -54 -40 -76 -58 -23 -18 -47 -31 -55 -28 -8 3 -11 1 -8 -4 8 -13 -47 -48 -176 -112 -94 -47 -145 -68 -162 -68 -9 0 -19 -4 -22 -10 -3 -5 -17 -10 -30 -10 -13 0 -26 -4 -29 -9 -3 -5 -38 -16 -78 -25 -40 -9 -93 -21 -118 -27 -72 -16 -154 -22 -310 -22 -158 0 -237 6 -315 23 -123 28 -212 52 -239 65 -16 8 -34 15 -39 15 -12 0 -72 27 -156 68 -108 54 -122 63 -115 74 4 6 3 8 -3 5 -12 -8 -65 27 -56 37 4 4 0 4 -8 1 -10 -4 -32 7 -57 27 -22 18 -57 44 -76 58 -20 14 -34 30 -31 37 2 7 -2 10 -10 7 -15 -6 -39 29 -27 40 3 4 0 4 -9 1 -18 -7 -84 59 -74 74 4 7 1 10 -7 9 -7 -2 -12 2 -11 9 2 7 -3 10 -10 7 -14 -5 -117 118 -149 177 -9 17 -23 38 -31 47 -8 9 -24 35 -36 57 -46 90 -99 202 -105 225 -4 14 -14 40 -22 58 -19 41 -60 201 -69 267 -15 115 -17 147 -17 285 0 172 7 246 38 390 9 41 20 79 25 85 5 5 9 18 9 30 0 11 6 32 14 46 7 14 16 38 20 53 7 30 70 162 114 241 63 115 190 278 209 271 7 -3 12 0 10 7 -1 7 4 11 11 9 8 -1 11 2 7 9 -9 14 55 81 72 75 7 -3 12 -2 12 2 -4 22 3 33 19 30 10 -2 16 3 15 12 -1 8 14 26 33 40 19 14 54 40 76 58 23 18 47 31 55 28 8 -3 11 -1 8 4 -8 13 47 48 176 112 94 47 145 68 162 68 9 0 19 5 22 10 3 6 17 10 30 10 13 0 26 4 29 9 3 5 38 16 78 25 40 9 93 21 118 27 25 5 72 12 104 14 33 3 60 6 62 8 5 4 291 -1 353 -7z"/>
<path d="M4880 6517 c-3 -3 -32 -7 -65 -8 -33 -2 -67 -6 -75 -10 -8 -4 -39 -10 -69 -13 -30 -3 -59 -10 -65 -15 -6 -5 -27 -12 -46 -16 -19 -3 -54 -15 -76 -25 -23 -11 -54 -22 -69 -26 -24 -6 -157 -75 -236 -123 -59 -36 -190 -144 -260 -215 -106 -107 -119 -123 -119 -134 0 -5 -7 -12 -15 -16 -8 -3 -15 -12 -15 -19 0 -18 -34 -49 -44 -40 -4 4 -4 1 -1 -8 3 -8 -9 -37 -26 -64 -18 -28 -48 -81 -66 -120 -19 -38 -38 -78 -44 -87 -5 -10 -9 -23 -9 -30 0 -7 -6 -25 -14 -39 -7 -14 -16 -43 -20 -65 -5 -21 -12 -44 -17 -50 -5 -6 -12 -35 -15 -65 -3 -30 -9 -61 -13 -69 -22 -46 -22 -475 0 -521 4 -8 10 -33 13 -55 6 -43 36 -153 54 -197 7 -16 12 -33 12 -38 0 -5 4 -17 9 -27 6 -9 25 -48 44 -87 18 -38 48 -92 66 -120 17 -27 29 -56 26 -63 -2 -7 -1 -11 4 -8 8 5 71 -66 71 -80 0 -13 175 -191 233 -236 23 -18 46 -38 50 -45 4 -7 14 -13 21 -13 7 0 23 -11 36 -25 13 -14 26 -25 30 -25 4 0 54 -26 111 -58 58 -33 118 -62 133 -66 16 -4 47 -15 70 -26 22 -10 57 -22 76 -25 19 -4 40 -11 46 -16 6 -5 35 -12 65 -15 30 -3 61 -9 69 -13 46 -22 474 -22 520 0 8 4 39 10 69 13 30 3 59 10 65 15 6 5 29 12 51 16 22 4 45 11 50 15 6 4 35 16 65 26 30 10 102 45 159 76 58 32 106 58 107 58 2 0 45 33 96 73 112 89 278 253 278 275 0 5 7 12 15 16 8 3 15 12 15 19 0 18 34 49 44 40 4 -4 4 -1 1 8 -3 8 9 37 26 64 18 28 48 82 66 120 19 39 38 78 44 87 5 10 9 23 9 30 0 7 6 25 14 39 7 14 16 43 20 65 5 21 12 44 17 50 5 6 12 35 15 65 3 30 9 61 13 69 22 46 22 475 0 521 -4 8 -10 33 -13 55 -6 43 -36 153 -54 197 -7 16 -12 33 -12 38 0 5 -4 17 -9 27 -6 9 -25 49 -44 87 -18 39 -48 92 -66 120 -17 27 -29 56 -26 63 2 7 1 11 -4 8 -8 -5 -71 66 -71 80 0 7 -19 28 -119 130 -70 71 -201 179 -260 215 -79 48 -212 117 -236 123 -15 4 -46 15 -69 26 -22 10 -57 22 -76 25 -19 4 -40 11 -46 16 -6 5 -35 12 -65 15 -30 3 -58 9 -63 12 -13 8 -49 11 -226 18 -85 4 -157 4 -160 1z m286 -92 c91 -10 119 -14 169 -28 28 -8 72 -20 99 -26 63 -15 156 -59 156 -74 0 -7 -6 -24 -14 -39 -8 -15 -22 -53 -31 -84 -9 -32 -26 -78 -37 -103 -11 -25 -24 -56 -29 -68 -5 -13 -13 -33 -18 -45 -5 -13 -17 -43 -26 -68 -9 -25 -27 -67 -40 -95 -80 -175 -87 -244 -33 -298 10 -10 15 -23 12 -29 -4 -6 -3 -8 3 -5 6 4 24 0 39 -8 37 -19 102 -19 147 0 19 8 38 11 41 7 4 -3 5 0 2 8 -3 10 28 42 85 90 49 41 103 87 120 103 17 15 35 24 41 21 7 -5 8 -2 4 5 -10 16 24 53 41 46 8 -3 11 0 7 6 -8 14 37 61 54 54 7 -2 11 -1 8 3 -5 9 33 61 87 119 l29 31 29 -33 c16 -18 29 -37 29 -43 0 -6 6 -15 13 -19 26 -16 79 -104 72 -121 -3 -9 -3 -13 1 -9 9 9 46 -42 69 -95 30 -74 34 -82 40 -106 5 -16 1 -24 -12 -28 -10 -4 -68 -31 -129 -60 -61 -30 -117 -54 -125 -54 -8 0 -19 -4 -24 -9 -9 -8 -59 -29 -192 -82 -57 -22 -80 -32 -106 -46 -16 -8 -37 -13 -48 -10 -10 3 -17 1 -13 -4 3 -5 1 -9 -4 -9 -6 0 -24 -21 -41 -47 -26 -38 -31 -56 -31 -104 0 -55 2 -59 46 -103 26 -26 55 -46 67 -46 12 0 65 -5 117 -11 83 -9 546 -15 581 -7 9 2 12 -10 10 -47 -2 -27 -5 -53 -8 -58 -2 -4 -7 -29 -10 -55 -3 -26 -9 -55 -15 -65 -5 -10 -7 -21 -4 -24 3 -4 2 -11 -3 -17 -4 -6 -11 -28 -14 -49 -5 -34 -20 -71 -60 -154 -6 -13 -14 -23 -19 -23 -5 0 -7 4 -4 9 4 5 -2 7 -12 4 -9 -2 -31 3 -47 11 -17 9 -37 16 -45 16 -8 0 -27 6 -41 14 -14 7 -39 16 -55 20 -16 4 -47 15 -69 25 -22 10 -56 24 -75 31 -19 7 -57 23 -85 35 -265 117 -326 123 -390 40 -44 -59 -45 -170 -1 -210 6 -5 38 -41 71 -80 33 -38 104 -116 158 -172 63 -65 96 -106 91 -114 -4 -7 -3 -10 3 -6 9 6 133 -88 147 -112 4 -5 -3 -12 -14 -16 -11 -3 -25 -15 -30 -26 -6 -10 -16 -19 -23 -19 -7 0 -23 -12 -36 -25 -13 -14 -29 -25 -35 -25 -7 0 -21 -9 -32 -21 -10 -11 -26 -18 -36 -16 -9 3 -16 0 -15 -5 2 -9 -39 -33 -165 -95 -52 -26 -47 -33 -158 209 -32 71 -62 138 -65 150 -4 13 -12 37 -20 53 -7 17 -18 41 -23 55 -6 14 -22 51 -36 82 -14 31 -26 61 -26 67 0 16 -51 71 -81 86 -15 8 -53 15 -83 15 -51 0 -57 -3 -99 -44 -47 -47 -48 -53 -63 -216 -4 -52 -6 -531 -2 -551 2 -8 -2 -13 -9 -12 -6 1 -33 5 -60 8 -90 10 -118 15 -168 28 -27 8 -72 20 -99 26 -63 15 -156 59 -156 74 1 7 9 30 20 52 11 22 20 47 20 55 0 8 7 28 15 44 8 15 15 33 15 38 0 6 7 26 16 46 20 46 29 67 45 112 11 32 38 97 73 175 79 176 79 240 0 300 -70 53 -161 45 -234 -21 -155 -141 -221 -194 -232 -188 -7 5 -8 3 -4 -5 10 -16 -24 -53 -41 -46 -8 3 -11 0 -7 -6 8 -14 -37 -61 -54 -54 -7 2 -11 1 -8 -3 5 -9 -33 -61 -87 -119 l-29 -31 -29 33 c-16 18 -29 37 -29 43 0 6 -6 15 -13 19 -26 16 -79 104 -72 121 3 9 3 13 -1 9 -9 -9 -46 42 -69 95 -30 74 -34 82 -40 106 -5 16 -1 24 12 28 10 4 68 31 129 60 61 30 117 54 125 54 8 0 19 4 24 9 9 8 59 29 193 82 50 20 69 28 113 48 25 12 50 21 56 21 6 0 25 21 42 47 51 77 38 173 -33 226 -27 21 -51 26 -156 37 -107 10 -553 16 -591 8 -9 -2 -12 11 -10 47 2 27 5 53 8 58 2 4 7 29 10 55 3 26 9 55 15 65 5 10 7 21 4 24 -3 4 -2 11 3 17 4 6 11 28 14 49 5 34 20 71 60 155 6 12 14 22 19 22 5 0 7 -4 4 -9 -4 -5 3 -7 13 -4 11 3 34 -2 50 -10 17 -9 44 -18 61 -22 16 -4 32 -11 35 -16 4 -5 13 -9 22 -9 16 0 155 -53 248 -95 182 -81 234 -98 291 -93 48 4 60 9 86 39 37 42 48 70 48 118 0 38 -22 106 -37 113 -5 1 -35 35 -68 73 -33 39 -104 116 -159 172 -89 93 -97 104 -85 120 12 16 12 17 -2 6 -16 -13 -47 7 -126 80 l-32 30 67 53 c37 30 72 54 78 54 6 0 19 9 30 21 10 11 26 18 36 16 9 -3 16 0 15 5 -2 9 39 33 165 95 48 24 62 16 61 -34 0 -7 4 -11 10 -10 10 2 109 -201 143 -293 9 -25 22 -58 29 -75 7 -16 18 -41 23 -55 6 -14 22 -51 36 -82 14 -31 26 -61 26 -67 0 -16 51 -71 81 -86 15 -8 53 -15 83 -15 51 0 57 3 99 44 47 47 48 53 63 216 3 42 6 528 3 546 -3 17 1 25 9 20 5 -3 31 -8 58 -11z"/>
<path d="M4904 5408 c-4 -7 -3 -8 4 -4 12 7 16 16 8 16 -3 0 -8 -5 -12 -12z"/>
<path d="M5085 5410 c3 -5 8 -10 11 -10 3 0 2 5 -1 10 -3 6 -8 10 -11 10 -3 0 -2 -4 1 -10z"/>
<path d="M4653 5170 c-13 -5 -25 -21 -29 -37 -3 -15 -8 -35 -10 -44 -4 -16 26 -49 63 -68 31 -16 67 1 86 41 36 77 -28 141 -110 108z"/>
<path d="M5259 5165 c-34 -18 -42 -60 -22 -103 20 -43 55 -57 91 -38 50 26 62 47 52 90 -5 21 -13 43 -18 48 -16 16 -76 19 -103 3z"/>
<path d="M4364 5048 c-4 -7 -3 -8 4 -4 12 7 16 16 8 16 -3 0 -8 -5 -12 -12z"/>
<path d="M4778 4814 c-14 -7 -31 -27 -38 -45 -11 -27 -11 -36 1 -58 37 -65 110 -65 142 0 15 32 16 39 2 66 -19 38 -71 56 -107 37z"/>
<path d="M5162 4816 c-19 -6 -39 -23 -47 -40 -14 -26 -14 -32 2 -65 32 -65 105 -65 142 0 12 22 13 31 1 58 -18 44 -55 62 -98 47z"/>
<path d="M3485 3020 c3 -5 8 -10 11 -10 3 0 2 5 -1 10 -3 6 -8 10 -11 10 -3 0 -2 -4 1 -10z"/>
<path d="M6504 3018 c-4 -7 -3 -8 4 -4 7 4 12 9 12 12 0 8 -9 4 -16 -8z"/>
</g>
<g id="layer105" fill="#dfe1de" stroke="none">
<path d="M0 4745 l0 -4745 4995 0 4995 0 0 4745 0 4745 -4995 0 -4995 0 0 -4745z m5148 2803 c7 -7 12 -27 12 -45 l0 -33 54 0 c53 0 55 1 66 35 9 29 17 35 39 35 43 0 255 -41 266 -51 5 -5 9 -26 10 -46 0 -35 2 -37 50 -49 27 -7 50 -12 50 -11 17 42 28 59 40 63 21 9 247 -74 267 -97 13 -15 15 -26 8 -45 -6 -14 -10 -27 -10 -29 0 -3 22 -16 50 -30 l49 -25 16 30 c10 20 23 30 38 30 12 0 72 -29 132 -65 100 -58 110 -66 109 -92 0 -15 -4 -35 -8 -44 -5 -12 4 -25 35 -48 l43 -31 27 26 c18 17 34 24 44 20 9 -3 61 -43 116 -88 101 -84 117 -110 84 -138 -22 -18 -19 -30 17 -67 35 -37 50 -40 68 -18 28 33 54 17 138 -84 45 -55 85 -107 88 -116 4 -10 -3 -26 -20 -44 l-26 -27 31 -43 c23 -30 36 -40 48 -35 9 4 28 9 42 11 24 4 31 -4 92 -110 37 -63 67 -124 67 -135 0 -12 -12 -28 -29 -38 l-30 -17 25 -49 c13 -26 26 -48 29 -48 2 0 15 4 29 10 19 7 29 5 44 -8 24 -21 106 -246 98 -267 -4 -12 -21 -23 -63 -40 -1 0 4 -23 11 -50 12 -48 14 -50 49 -50 20 -1 41 -5 46 -10 5 -6 20 -68 32 -139 24 -138 22 -156 -22 -166 -21 -5 -24 -12 -27 -63 l-3 -57 34 0 c53 0 57 -10 57 -160 0 -150 -4 -160 -57 -160 l-34 0 3 -57 c3 -51 6 -58 27 -63 44 -10 46 -28 22 -166 -12 -71 -27 -133 -32 -139 -5 -5 -26 -9 -46 -10 -35 0 -37 -2 -49 -50 -7 -27 -12 -50 -11 -50 42 -17 59 -28 63 -40 8 -21 -74 -246 -98 -267 -15 -13 -25 -15 -44 -8 -14 6 -27 10 -29 10 -3 0 -16 -22 -29 -48 l-25 -49 30 -17 c17 -10 29 -26 29 -38 0 -11 -30 -72 -67 -135 -61 -106 -68 -114 -92 -110 -14 2 -33 7 -42 11 -12 5 -25 -5 -48 -35 l-31 -43 26 -27 c17 -18 24 -34 20 -44 -3 -9 -43 -61 -88 -116 -84 -101 -110 -117 -138 -84 -18 22 -30 19 -67 -17 -37 -35 -40 -50 -18 -68 33 -28 17 -54 -84 -138 -55 -45 -107 -85 -116 -88 -10 -4 -26 3 -44 20 l-27 26 -43 -31 c-30 -23 -40 -36 -35 -48 4 -9 9 -28 11 -42 5 -24 -4 -31 -111 -93 -63 -36 -124 -66 -135 -66 -13 0 -27 12 -36 30 l-16 30 -49 -25 c-28 -14 -50 -27 -50 -30 0 -2 4 -15 10 -29 7 -19 5 -30 -8 -45 -20 -23 -246 -106 -267 -97 -12 4 -23 21 -40 63 0 1 -23 -4 -50 -11 -48 -12 -50 -14 -50 -49 -1 -20 -5 -41 -10 -46 -6 -5 -68 -20 -139 -32 -138 -24 -156 -22 -166 22 -5 21 -12 24 -63 27 l-57 3 0 -34 c0 -53 -10 -57 -160 -57 -150 0 -160 4 -160 57 l0 34 -57 -3 c-51 -3 -58 -6 -63 -27 -10 -44 -28 -46 -166 -22 -71 12 -133 27 -139 32 -5 5 -9 26 -10 46 0 35 -2 37 -50 49 -27 7 -50 12 -50 11 -17 -42 -28 -59 -40 -63 -21 -9 -247 74 -267 97 -13 15 -15 26 -8 45 6 14 10 27 10 29 0 3 -22 16 -50 30 l-49 25 -16 -30 c-9 -18 -23 -30 -36 -30 -11 0 -72 30 -135 66 -107 62 -116 69 -111 93 2 14 7 33 11 42 5 12 -5 25 -35 48 l-43 31 -27 -26 c-18 -17 -34 -24 -44 -20 -9 3 -61 43 -116 88 -101 84 -117 110 -84 138 22 18 19 30 -17 67 -35 37 -50 40 -68 18 -28 -33 -54 -17 -138 84 -45 55 -85 107 -88 116 -4 10 3 26 20 44 l26 27 -31 43 c-23 30 -36 40 -48 35 -9 -4 -28 -9 -42 -11 -24 -4 -31 4 -92 110 -37 63 -67 124 -67 135 0 12 12 28 29 38 l30 17 -25 49 c-13 26 -26 48 -29 48 -2 0 -15 -4 -29 -10 -19 -7 -29 -5 -44 8 -24 21 -106 246 -98 267 4 12 21 23 63 40 1 0 -4 23 -11 50 -12 48 -14 50 -49 50 -20 1 -41 5 -46 10 -5 6 -20 68 -32 139 -24 138 -22 156 22 166 21 5 24 12 27 63 l3 57 -34 0 c-53 0 -57 10 -57 160 0 150 4 160 57 160 l34 0 -3 57 c-3 51 -6 58 -27 63 -44 10 -46 28 -22 166 12 71 27 133 32 139 5 5 26 9 46 10 35 0 37 2 49 50 7 27 12 50 11 50 -42 17 -59 28 -63 40 -8 21 74 246 98 267 15 13 25 15 44 8 14 -6 27 -10 29 -10 3 0 16 22 29 48 l25 49 -30 17 c-17 10 -29 26 -29 38 0 11 30 72 67 135 61 106 68 114 92 110 14 -2 33 -7 42 -11 12 -5 25 5 48 35 l31 43 -26 27 c-17 18 -24 34 -20 44 3 9 43 61 88 116 84 101 110 117 138 84 18 -22 30 -19 67 17 37 35 40 50 18 68 -33 28 -17 54 84 138 55 45 107 85 116 88 10 4 26 -3 44 -20 l27 -26 43 31 c31 23 40 36 35 48 -4 9 -8 29 -8 44 -1 26 9 34 109 92 61 36 120 65 132 65 15 0 28 -10 38 -30 l16 -30 49 25 c28 14 50 27 50 30 0 2 -4 15 -10 29 -7 19 -5 30 8 45 20 23 246 106 267 97 12 -4 23 -21 40 -63 0 -1 23 4 50 11 48 12 50 14 50 49 1 20 5 41 10 46 11 10 223 51 266 51 22 0 30 -6 39 -35 11 -34 13 -35 66 -35 l54 0 0 33 c0 53 10 57 160 57 92 0 140 -4 148 -12z"/>
<path d="M4800 6749 c-585 -66 -1111 -437 -1377 -971 -430 -864 -74 -1917 795 -2352 867 -435 1923 -78 2359 796 243 487 243 1069 0 1556 -332 665 -1043 1054 -1777 971z m536 -103 c666 -140 1169 -644 1311 -1315 24 -113 27 -147 27 -331 0 -184 -3 -218 -27 -331 -110 -517 -433 -940 -892 -1168 -150 -75 -263 -114 -424 -148 -113 -24 -147 -27 -331 -27 -184 0 -218 3 -331 27 -675 143 -1173 641 -1316 1316 -24 113 -27 147 -27 331 0 184 3 218 27 331 110 517 433 940 892 1168 271 135 489 183 795 176 138 -3 201 -9 296 -29z"/>
<path d="M4850 6514 c-270 -35 -524 -130 -723 -271 -45 -32 -126 -100 -180 -152 -235 -227 -379 -494 -444 -826 -24 -125 -24 -405 0 -530 38 -192 100 -358 190 -507 231 -384 598 -639 1042 -725 125 -24 406 -24 530 0 321 63 570 192 798 416 228 223 370 490 434 816 24 125 24 405 0 530 -38 192 -100 358 -190 507 -227 377 -588 632 -1017 719 -93 19 -361 33 -440 23z m480 -114 c115 -27 260 -81 260 -97 0 -22 -103 -295 -185 -487 -57 -134 -75 -189 -75 -224 0 -50 23 -93 68 -126 34 -26 119 -33 158 -13 52 27 248 202 390 350 l139 144 41 -51 c88 -109 220 -346 212 -382 -4 -18 -182 -102 -453 -214 -110 -45 -211 -92 -223 -104 -40 -36 -55 -74 -50 -131 5 -61 33 -106 81 -128 52 -25 222 -38 492 -37 l250 1 -3 -38 c-4 -49 -30 -197 -43 -243 -28 -97 -75 -210 -86 -210 -22 0 -291 102 -487 185 -194 81 -246 91 -298 57 -49 -32 -72 -71 -76 -131 -3 -49 0 -62 25 -98 48 -72 216 -255 351 -383 l129 -124 -41 -34 c-93 -79 -344 -222 -388 -222 -8 0 -25 21 -38 48 -48 98 -134 293 -197 447 -85 209 -115 241 -218 233 -61 -5 -106 -33 -128 -81 -25 -52 -38 -222 -37 -492 l1 -250 -38 3 c-151 11 -453 97 -453 129 0 22 102 291 185 487 97 232 98 278 12 347 -30 23 -99 36 -140 25 -44 -11 -188 -135 -372 -320 l-181 -182 -41 51 c-87 106 -219 345 -211 381 4 18 182 102 453 214 110 45 211 92 223 104 40 36 55 74 50 131 -5 61 -33 106 -81 128 -52 25 -222 38 -492 37 l-250 -1 3 38 c4 49 30 197 43 243 28 97 75 210 86 210 22 0 291 -102 487 -185 199 -83 246 -92 300 -54 50 34 70 68 74 129 3 48 0 61 -25 97 -48 72 -216 255 -351 383 l-129 124 51 42 c103 83 334 214 379 214 9 0 27 -25 42 -57 72 -153 132 -292 192 -438 85 -209 115 -241 218 -233 61 5 106 33 128 81 25 51 37 221 37 487 0 135 0 248 0 251 0 9 136 -10 230 -31z"/>
<path d="M4945 5374 c-14 -15 -25 -39 -25 -54 0 -38 42 -80 80 -80 38 0 80 42 80 80 0 37 -44 80 -82 80 -18 0 -38 -10 -53 -26z"/>
<path d="M4646 5159 c-37 -29 -37 -89 0 -118 35 -27 66 -26 100 2 20 17 27 33 27 57 0 24 -7 40 -27 57 -34 28 -65 29 -100 2z"/>
<path d="M5254 5157 c-20 -17 -27 -33 -27 -57 0 -24 7 -40 27 -57 34 -28 65 -29 100 -2 20 16 26 29 26 59 0 70 -72 103 -126 57z"/>
<path d="M4772 4813 c-15 -6 -42 -56 -42 -78 0 -26 55 -75 85 -75 36 0 75 41 75 80 0 56 -63 95 -118 73z"/>
<path d="M5135 4795 c-16 -15 -25 -36 -25 -55 0 -39 39 -80 75 -80 30 0 85 49 85 75 0 24 -27 72 -45 79 -33 12 -66 5 -90 -19z"/>
</g>
<g id="layer106" fill="#e0e1e5" stroke="none">
<path d="M0 4745 l0 -4745 4995 0 4995 0 0 4745 0 4745 -4995 0 -4995 0 0 -4745z m5375 2856 c17 -5 90 -9 163 -10 91 -2 144 -7 168 -17 20 -8 42 -13 49 -11 12 5 116 -16 134 -27 5 -4 8 -13 4 -21 -3 -9 1 -15 11 -15 9 0 16 -7 16 -15 0 -8 -9 -15 -20 -15 -11 0 -20 5 -20 10 0 6 -12 10 -26 10 -16 0 -23 -4 -18 -11 8 -13 -54 -2 -73 13 -8 7 -20 5 -35 -6 -12 -9 -18 -16 -12 -16 5 0 15 5 22 12 8 8 15 8 25 0 8 -7 34 -15 59 -18 28 -4 49 -13 56 -25 15 -24 17 -24 -62 6 -66 25 -103 23 -121 -4 -9 -16 7 -13 33 5 18 12 26 13 37 4 8 -7 15 -10 15 -6 0 4 11 -1 25 -10 14 -9 25 -13 25 -10 0 4 6 4 13 -1 6 -4 20 -9 29 -10 9 -1 42 -15 74 -30 43 -21 61 -36 71 -61 9 -22 10 -31 2 -30 -6 2 -13 -2 -16 -9 -2 -7 17 -23 44 -37 l49 -24 13 29 c19 44 51 37 176 -36 100 -58 110 -66 109 -92 0 -15 -4 -35 -8 -44 -5 -12 4 -25 35 -47 l42 -31 23 24 c13 14 29 25 36 25 14 0 96 -59 138 -99 14 -13 40 -34 58 -48 35 -28 41 -57 16 -84 -15 -16 -14 -20 2 -41 10 -13 29 -32 42 -42 21 -16 25 -17 41 -2 29 26 56 19 92 -25 19 -22 40 -47 47 -55 33 -35 92 -120 92 -132 0 -7 -11 -23 -25 -36 l-24 -23 31 -42 c22 -30 35 -40 47 -35 54 23 67 18 102 -41 113 -192 117 -203 70 -231 l-30 -17 25 -49 c26 -50 27 -51 59 -39 11 5 28 5 37 0 16 -9 48 -63 48 -82 0 -5 6 -23 14 -40 7 -18 22 -58 32 -90 l19 -59 -24 -19 c-13 -10 -30 -19 -37 -19 -14 0 -14 -5 6 -79 5 -20 13 -25 41 -26 18 0 39 -4 45 -8 12 -7 23 -47 31 -112 2 -22 11 -69 18 -105 7 -35 11 -68 9 -72 -3 -4 -19 -11 -37 -16 -35 -9 -43 -30 -32 -88 5 -29 10 -34 33 -34 48 0 52 -13 52 -160 0 -147 -4 -160 -52 -160 -23 0 -28 -5 -33 -34 -11 -57 -3 -77 35 -90 20 -7 35 -18 34 -26 -4 -50 -47 -267 -55 -275 -5 -5 -26 -10 -46 -10 -30 -1 -38 -6 -43 -26 -20 -74 -20 -79 -6 -79 7 0 24 -9 37 -19 l24 -19 -19 -59 c-10 -32 -25 -72 -32 -90 -8 -17 -14 -35 -14 -40 0 -19 -32 -73 -48 -82 -9 -5 -26 -5 -37 0 -32 12 -33 11 -59 -39 l-25 -49 30 -17 c47 -28 43 -39 -70 -231 -35 -59 -48 -64 -102 -41 -12 5 -25 -5 -47 -35 l-31 -42 24 -23 c14 -13 25 -29 25 -36 0 -12 -59 -97 -92 -132 -7 -8 -28 -33 -47 -55 -36 -44 -63 -51 -92 -25 -16 15 -20 14 -41 -2 -13 -10 -32 -29 -42 -42 -16 -21 -17 -25 -2 -41 25 -27 19 -56 -16 -84 -18 -14 -44 -35 -58 -48 -42 -40 -124 -99 -138 -99 -7 0 -23 11 -36 25 l-23 24 -42 -31 c-30 -22 -40 -35 -35 -47 4 -9 9 -28 11 -42 5 -28 -10 -39 -169 -126 -74 -41 -93 -41 -113 -3 l-16 30 -49 -25 c-28 -14 -50 -27 -50 -30 0 -2 4 -15 10 -29 7 -19 5 -30 -8 -45 -20 -23 -246 -106 -267 -97 -12 4 -23 21 -40 63 0 1 -23 -4 -50 -10 -47 -13 -49 -14 -50 -50 0 -20 -5 -41 -10 -46 -10 -9 -215 -51 -265 -54 -20 -2 -27 5 -36 33 -11 34 -13 35 -68 37 l-56 2 0 -33 c0 -52 -10 -56 -160 -56 -150 0 -160 4 -160 56 l0 33 -56 -2 c-55 -2 -57 -3 -68 -37 -9 -28 -16 -35 -36 -33 -50 3 -255 45 -265 54 -5 5 -10 26 -10 46 -1 36 -3 37 -50 50 -27 6 -50 11 -50 10 -17 -42 -28 -59 -40 -63 -21 -9 -247 74 -267 97 -13 15 -15 26 -8 45 6 14 10 27 10 29 0 3 -22 16 -50 30 l-49 25 -16 -30 c-20 -38 -39 -38 -113 3 -159 87 -174 98 -169 126 2 14 7 33 11 42 5 12 -5 25 -35 47 l-42 31 -23 -24 c-13 -14 -29 -25 -36 -25 -14 0 -96 59 -138 99 -14 13 -40 34 -57 48 -36 28 -42 57 -17 84 15 16 14 20 -2 41 -10 13 -29 32 -42 42 -21 16 -25 17 -41 2 -29 -26 -56 -19 -92 25 -19 22 -40 47 -47 55 -33 35 -92 120 -92 132 0 7 11 23 25 36 l24 23 -31 42 c-22 30 -35 40 -47 35 -54 -23 -67 -18 -102 41 -113 192 -117 203 -70 231 l30 17 -25 49 c-26 50 -27 51 -59 39 -11 -5 -28 -5 -37 0 -16 9 -48 63 -48 82 0 5 -6 23 -14 40 -7 18 -22 58 -32 90 l-19 59 24 19 c13 10 30 19 37 19 14 0 14 5 -6 79 -5 20 -13 25 -43 26 -20 0 -41 5 -46 10 -8 8 -51 225 -55 275 -1 8 14 19 34 26 34 11 35 13 36 68 l1 56 -32 0 c-51 0 -55 11 -55 160 0 149 4 160 55 160 l32 0 -1 57 c-1 55 -2 57 -33 65 -18 5 -34 12 -37 16 -2 4 2 37 9 72 7 36 16 83 18 105 8 65 19 105 31 112 6 4 27 8 45 8 28 1 36 6 41 26 20 74 20 79 6 79 -7 0 -24 9 -37 19 l-24 19 19 59 c10 32 25 72 32 90 8 17 14 35 14 40 0 19 32 73 48 82 9 5 26 5 37 0 32 -12 33 -11 59 39 l25 49 -30 17 c-47 28 -43 39 70 231 35 59 48 64 102 41 12 -5 25 5 47 35 l31 42 -24 23 c-14 13 -25 29 -25 36 0 12 59 97 92 132 7 8 28 33 47 55 36 44 63 51 92 25 16 -15 20 -14 41 2 13 10 32 29 42 42 16 21 17 25 2 41 -25 27 -19 56 17 84 17 14 43 35 57 48 42 40 124 99 138 99 7 0 23 -11 36 -25 l23 -24 42 31 c31 22 40 35 35 47 -4 9 -8 29 -8 44 -1 26 9 34 109 92 125 73 157 80 176 36 l13 -29 49 24 c27 14 46 30 44 37 -3 7 -10 11 -16 9 -8 -1 -7 8 2 30 10 25 28 40 71 61 32 15 67 29 79 31 12 3 23 5 25 7 1 1 5 2 10 3 4 1 24 9 45 19 34 16 39 17 59 3 25 -18 42 -21 33 -7 -5 9 -62 41 -72 41 -2 0 -1 -5 3 -11 4 -7 0 -9 -12 -6 -11 3 -36 8 -56 12 -40 6 -50 21 -21 32 14 5 13 8 -5 14 -35 13 -28 39 11 38 33 -2 41 -1 210 21 80 10 103 10 123 0 13 -8 27 -10 31 -7 3 4 -2 7 -13 8 -13 0 -10 3 9 9 15 5 68 7 117 6 50 -2 90 0 90 5 0 17 592 16 655 0z m-1298 -78 c-4 -3 -10 -3 -14 0 -3 4 0 7 7 7 7 0 10 -3 7 -7z m1870 1 c-3 -3 -12 -4 -19 -1 -8 3 -5 6 6 6 11 1 17 -2 13 -5z m-1738 -68 c-2 -2 -13 -6 -24 -8 -11 -1 -22 -6 -25 -9 -3 -4 -16 -10 -29 -14 -30 -9 -19 12 13 25 21 9 73 13 65 6z m-112 -22 c-3 -3 -12 -4 -19 -1 -8 3 -5 6 6 6 11 1 17 -2 13 -5z m1830 0 c-3 -3 -12 -4 -19 -1 -8 3 -5 6 6 6 11 1 17 -2 13 -5z m-1900 -11 c-4 -3 -10 -3 -14 0 -3 4 0 7 7 7 7 0 10 -3 7 -7z m1960 0 c-4 -3 -10 -3 -14 0 -3 4 0 7 7 7 7 0 10 -3 7 -7z m-1887 -7 c0 -2 -7 -7 -16 -10 -8 -3 -12 -2 -9 4 6 10 25 14 25 6z m1825 -6 c3 -6 -1 -7 -9 -4 -18 7 -21 14 -7 14 6 0 13 -4 16 -10z m-1875 -10 c-8 -5 -19 -10 -25 -10 -5 0 -3 5 5 10 8 5 20 10 25 10 6 0 3 -5 -5 -10z m1927 -7 c-4 -3 -10 -3 -14 0 -3 4 0 7 7 7 7 0 10 -3 7 -7z"/>
<path d="M4803 7585 c0 -6 6 -12 13 -12 7 0 11 4 8 9 -3 4 -1 8 4 8 16 0 21 -27 9 -40 -7 -7 0 -5 16 5 15 9 27 19 27 22 0 2 -5 1 -11 -3 -6 -3 -15 0 -20 7 -10 17 -46 20 -46 4z"/>
<path d="M5153 7584 c-3 -8 -12 -13 -19 -10 -23 9 -16 0 14 -19 15 -10 22 -12 15 -5 -12 13 -7 40 9 40 5 0 7 -4 4 -8 -3 -5 1 -9 8 -9 7 0 13 5 13 12 0 17 -37 16 -44 -1z"/>
<path d="M5278 7593 c7 -3 16 -2 19 1 4 3 -2 6 -13 5 -11 0 -14 -3 -6 -6z"/>
<path d="M5339 7591 c8 -5 10 -14 5 -22 -6 -11 -4 -11 10 0 13 11 14 16 4 22 -7 5 -17 9 -23 9 -5 0 -4 -4 4 -9z"/>
<path d="M4543 7583 c4 -3 10 -3 14 0 3 4 0 7 -7 7 -7 0 -10 -3 -7 -7z"/>
<path d="M4630 7586 c0 -2 6 -9 14 -15 11 -9 16 -9 22 0 4 8 3 9 -4 5 -7 -4 -12 -2 -12 3 0 6 -4 11 -10 11 -5 0 -10 -2 -10 -4z"/>
<path d="M5448 7583 c6 -2 18 -2 25 0 6 3 1 5 -13 5 -14 0 -19 -2 -12 -5z"/>
<path d="M4588 7573 c7 -3 16 -2 19 1 4 3 -2 6 -13 5 -11 0 -14 -3 -6 -6z"/>
<path d="M5300 7573 c0 -15 18 -35 23 -27 3 5 -1 15 -9 22 -8 7 -14 9 -14 5z"/>
<path d="M5398 7573 c7 -3 16 -2 19 1 4 3 -2 6 -13 5 -11 0 -14 -3 -6 -6z"/>
<path d="M5503 7573 c4 -3 10 -3 14 0 3 4 0 7 -7 7 -7 0 -10 -3 -7 -7z"/>
<path d="M4675 7560 c-3 -5 -2 -10 4 -10 5 0 13 5 16 10 3 6 2 10 -4 10 -5 0 -13 -4 -16 -10z"/>
<path d="M4607 7539 c8 -8 16 -8 30 0 16 9 14 10 -11 11 -22 0 -27 -3 -19 -11z"/>
<path d="M4705 7540 c3 -5 8 -10 11 -10 3 0 2 5 -1 10 -3 6 -8 10 -11 10 -3 0 -2 -4 1 -10z"/>
<path d="M5284 7538 c-4 -7 -3 -8 4 -4 7 4 12 9 12 12 0 8 -9 4 -16 -8z"/>
<path d="M5363 7539 c14 -8 22 -8 30 0 8 8 3 11 -18 11 -26 -1 -28 -2 -12 -11z"/>
<path d="M5425 7540 c-16 -7 -17 -9 -3 -9 9 -1 20 4 23 9 7 11 7 11 -20 0z"/>
<path d="M4547 7529 c8 -8 16 -8 30 0 16 9 14 10 -11 11 -22 0 -27 -3 -19 -11z"/>
<path d="M4498 7518 c9 -9 15 -9 24 0 9 9 7 12 -12 12 -19 0 -21 -3 -12 -12z"/>
<path d="M5476 7519 c3 -6 14 -9 24 -6 10 2 24 1 31 -4 7 -4 18 -5 23 -1 12 7 -25 19 -62 21 -14 1 -21 -3 -16 -10z"/>
<path d="M4180 7510 c0 -5 5 -10 11 -10 5 0 7 5 4 10 -3 6 -8 10 -11 10 -2 0 -4 -4 -4 -10z"/>
<path d="M4213 7513 c4 -3 10 -3 14 0 3 4 0 7 -7 7 -7 0 -10 -3 -7 -7z"/>
<path d="M4406 7508 c3 -5 10 -6 15 -3 13 9 11 12 -6 12 -8 0 -12 -4 -9 -9z"/>
<path d="M4445 7510 c3 -5 12 -7 20 -3 21 7 19 13 -6 13 -11 0 -18 -4 -14 -10z"/>
<path d="M5576 7508 c3 -5 10 -6 15 -3 13 9 11 12 -6 12 -8 0 -12 -4 -9 -9z"/>
<path d="M5661 7504 c0 -11 3 -14 6 -6 3 7 2 16 -1 19 -3 4 -6 -2 -5 -13z"/>
<path d="M5800 7516 c0 -2 9 -6 20 -9 11 -3 18 -1 14 4 -5 9 -34 13 -34 5z"/>
<path d="M4301 7501 c-8 -5 -9 -11 -3 -15 5 -3 12 1 16 9 6 17 6 18 -13 6z"/>
<path d="M4195 7490 c-13 -6 -15 -9 -5 -9 8 0 22 4 30 9 18 12 2 12 -25 0z"/>
<path d="M4256 7485 c10 -8 23 -15 28 -15 6 0 1 7 -10 15 -10 8 -23 15 -28 15 -6 0 -1 -7 10 -15z"/>
<path d="M4730 7485 c0 -8 4 -15 10 -15 5 0 7 7 4 15 -4 8 -8 15 -10 15 -2 0 -4 -7 -4 -15z"/>
<path d="M5256 7485 c-3 -8 -1 -15 4 -15 6 0 10 7 10 15 0 8 -2 15 -4 15 -2 0 -6 -7 -10 -15z"/>
<path d="M5690 7490 c-9 -6 -10 -10 -3 -10 6 0 15 5 18 10 8 12 4 12 -15 0z"/>
<path d="M5788 7493 c6 -2 18 -2 25 0 6 3 1 5 -13 5 -14 0 -19 -2 -12 -5z"/>
<path d="M4395 7475 c-3 -8 -7 -22 -10 -31 -3 -9 0 -14 7 -12 6 2 12 16 12 31 2 30 -2 35 -9 12z"/>
<path d="M4813 7483 c4 -3 10 -3 14 0 3 4 0 7 -7 7 -7 0 -10 -3 -7 -7z"/>
<path d="M5173 7483 c4 -3 10 -3 14 0 3 4 0 7 -7 7 -7 0 -10 -3 -7 -7z"/>
<path d="M5594 7463 c2 -15 8 -29 13 -30 5 -2 8 10 5 27 -5 37 -22 40 -18 3z"/>
<path d="M4305 7460 c3 -5 8 -10 11 -10 3 0 2 5 -1 10 -3 6 -8 10 -11 10 -3 0 -2 -4 1 -10z"/>
<path d="M5684 7458 c-4 -7 -3 -8 4 -4 7 4 12 9 12 12 0 8 -9 4 -16 -8z"/>
<path d="M4313 7424 c-20 -21 -17 -48 5 -39 9 4 22 8 27 9 6 1 16 5 23 9 6 5 16 6 21 2 5 -3 12 -1 16 5 3 5 -9 9 -30 8 -20 -1 -40 3 -43 9 -5 7 -11 6 -19 -3z m22 -14 c3 -5 -1 -10 -10 -10 -9 0 -13 5 -10 10 3 6 8 10 10 10 2 0 7 -4 10 -10z"/>
<path d="M5668 7428 c-2 -6 -21 -11 -41 -10 -23 1 -35 -3 -32 -8 4 -6 11 -8 16 -5 5 4 15 3 22 -2 6 -4 17 -8 22 -9 6 -1 18 -5 28 -9 12 -5 17 -2 17 10 0 22 -27 49 -32 33z m17 -18 c3 -5 -1 -10 -10 -10 -9 0 -13 5 -10 10 3 6 8 10 10 10 2 0 7 -4 10 -10z"/>
<path d="M4810 6748 c-36 -5 -82 -10 -104 -13 -21 -3 -53 -9 -70 -14 -17 -5 -62 -17 -101 -26 -38 -9 -88 -25 -110 -35 -22 -9 -52 -20 -66 -23 -30 -8 -131 -55 -204 -97 -27 -16 -57 -32 -65 -36 -57 -28 -207 -142 -291 -222 -132 -125 -194 -201 -307 -377 -7 -11 -20 -36 -28 -55 -9 -19 -21 -42 -28 -50 -7 -8 -22 -40 -35 -70 -13 -30 -30 -67 -37 -82 -8 -14 -14 -33 -14 -41 0 -8 -7 -28 -15 -43 -8 -16 -15 -36 -15 -45 0 -9 -7 -32 -15 -52 -8 -19 -16 -50 -18 -69 -2 -19 -7 -40 -10 -45 -4 -6 -9 -30 -11 -54 -3 -24 -10 -78 -15 -119 -6 -41 -10 -122 -10 -180 0 -58 4 -139 10 -180 5 -41 12 -95 15 -119 2 -24 7 -48 11 -54 3 -5 8 -26 10 -45 2 -19 10 -50 18 -69 8 -20 15 -43 15 -52 0 -9 7 -29 15 -45 8 -15 15 -35 15 -43 0 -8 6 -27 14 -41 7 -15 24 -52 37 -82 13 -30 28 -62 35 -70 7 -8 19 -31 28 -50 8 -19 21 -44 28 -55 113 -176 175 -252 307 -377 84 -80 234 -194 291 -222 8 -4 38 -20 65 -36 73 -42 174 -89 204 -97 14 -3 44 -14 66 -23 22 -10 72 -26 110 -35 39 -9 84 -21 101 -26 16 -5 51 -11 77 -13 26 -3 51 -8 57 -11 16 -10 338 -13 415 -3 39 5 87 11 109 13 21 3 53 9 70 14 17 5 63 17 101 26 39 9 89 25 112 36 23 10 49 19 57 19 8 0 18 5 21 10 3 6 14 10 23 11 9 0 42 13 72 29 30 16 73 38 95 49 46 24 50 26 168 105 49 32 133 102 188 154 132 125 194 201 307 377 7 11 20 36 28 55 9 19 21 42 28 50 7 8 22 40 35 70 13 30 30 67 37 82 8 14 14 33 14 41 0 8 7 28 15 43 8 16 15 36 15 45 0 9 7 32 15 52 8 19 16 50 18 69 2 19 7 40 10 45 4 6 9 30 11 54 3 24 10 78 15 119 6 41 10 122 10 180 0 58 -4 139 -10 180 -5 41 -12 95 -15 119 -2 24 -7 48 -11 54 -3 5 -8 26 -10 45 -2 19 -10 50 -18 69 -8 20 -15 43 -15 52 0 9 -7 29 -15 45 -8 15 -15 35 -15 43 0 8 -6 27 -14 41 -7 15 -24 52 -37 82 -13 30 -28 62 -35 70 -7 8 -19 31 -28 50 -8 19 -21 44 -28 55 -113 176 -175 252 -307 377 -83 79 -187 158 -296 225 -49 30 -259 133 -272 133 -8 0 -33 9 -56 19 -23 11 -73 27 -112 36 -38 9 -84 21 -101 26 -16 5 -51 11 -77 13 -26 3 -51 7 -57 11 -15 9 -347 12 -420 3z m375 -78 c100 -12 144 -19 170 -25 11 -2 38 -8 60 -13 22 -5 85 -26 140 -47 55 -20 109 -39 120 -43 38 -11 226 -121 307 -179 76 -54 266 -232 333 -313 71 -84 204 -310 236 -400 9 -25 23 -61 31 -80 98 -227 125 -612 65 -920 -12 -61 -46 -176 -65 -220 -8 -19 -22 -55 -31 -80 -20 -57 -101 -206 -154 -285 -105 -155 -266 -321 -415 -428 -81 -58 -269 -168 -307 -179 -11 -4 -65 -23 -120 -43 -55 -21 -118 -42 -140 -47 -22 -5 -49 -11 -60 -13 -80 -19 -249 -35 -355 -35 -106 0 -275 16 -355 35 -99 22 -129 32 -290 92 -217 82 -487 283 -654 488 -103 126 -213 307 -254 420 -66 179 -70 191 -92 290 -19 80 -35 249 -35 355 0 106 16 275 35 355 22 99 26 111 92 290 23 62 103 210 156 290 105 155 266 321 415 428 81 58 269 168 307 179 11 4 65 23 120 43 55 21 118 42 140 47 22 5 49 11 60 13 21 5 60 11 160 24 88 12 288 13 380 1z"/>
<path d="M4850 6512 c-119 -10 -323 -61 -430 -108 -96 -42 -203 -98 -229 -120 -14 -11 -53 -38 -86 -59 -70 -46 -276 -249 -320 -315 -16 -25 -36 -53 -45 -63 -31 -38 -90 -146 -143 -267 -34 -75 -73 -206 -93 -315 -33 -175 -19 -518 27 -650 6 -16 17 -54 25 -83 24 -90 103 -258 159 -337 19 -27 38 -58 41 -67 4 -10 10 -18 15 -18 5 0 16 -15 25 -32 9 -18 69 -84 133 -148 232 -231 488 -366 806 -426 123 -23 406 -23 530 0 199 37 451 137 556 221 24 19 48 35 52 35 30 0 290 253 342 330 16 25 36 53 45 63 31 38 90 146 143 267 34 75 73 206 93 315 33 175 19 518 -27 650 -6 17 -17 54 -25 83 -24 90 -103 258 -159 337 -19 28 -38 58 -41 68 -4 9 -10 17 -15 17 -5 0 -16 15 -25 32 -9 18 -69 84 -133 148 -232 231 -490 368 -805 425 -80 15 -322 25 -416 17z m415 -96 c49 -7 206 -53 258 -75 27 -12 56 -21 64 -21 10 0 13 -5 8 -17 -4 -10 -16 -45 -27 -78 -11 -33 -26 -74 -34 -92 -8 -17 -14 -36 -14 -42 0 -6 -4 -19 -9 -29 -5 -9 -16 -33 -24 -52 -181 -425 -186 -447 -111 -522 72 -72 149 -65 262 25 74 59 358 337 414 405 l27 33 38 -43 c83 -92 222 -339 223 -394 0 -13 -91 -59 -266 -134 -61 -26 -120 -52 -130 -58 -24 -12 -47 -22 -154 -63 -109 -42 -156 -78 -170 -130 -17 -61 -3 -125 34 -163 51 -51 114 -59 470 -63 l309 -3 2 -27 c1 -16 -2 -41 -6 -58 -5 -16 -10 -48 -13 -70 -7 -66 -57 -242 -82 -287 -8 -14 -14 -34 -14 -43 0 -12 -5 -15 -17 -10 -10 4 -45 16 -78 27 -33 11 -74 26 -92 34 -17 8 -37 14 -45 14 -8 0 -18 4 -23 8 -6 5 -37 19 -70 32 -33 12 -83 33 -112 46 -28 13 -55 24 -59 24 -4 0 -35 13 -68 29 -152 72 -235 67 -286 -17 -48 -78 -35 -144 46 -243 59 -72 344 -363 402 -411 l33 -27 -41 -37 c-78 -70 -347 -224 -392 -224 -14 0 -114 200 -178 354 -17 44 -36 87 -40 95 -5 9 -24 56 -42 104 -43 114 -85 162 -150 172 -64 10 -104 -1 -142 -40 -32 -32 -38 -48 -54 -155 -2 -14 -5 -159 -7 -323 -2 -163 -7 -298 -10 -298 -6 -2 -128 10 -165 15 -47 8 -205 54 -253 75 -27 12 -56 21 -64 21 -10 0 -13 5 -8 18 4 9 16 44 27 77 11 33 26 74 34 92 8 17 14 37 14 45 0 8 4 18 8 24 5 5 19 36 32 69 12 33 31 78 40 100 127 282 136 339 64 409 -26 26 -47 36 -82 40 -68 9 -102 -5 -189 -76 -76 -62 -352 -332 -405 -396 l-27 -33 -38 43 c-83 92 -222 339 -223 394 0 13 91 59 266 134 61 26 120 52 130 58 24 12 47 22 154 63 109 42 156 78 170 130 17 61 3 125 -34 163 -51 51 -114 59 -470 63 l-309 3 -2 27 c-1 16 2 42 6 58 5 17 10 48 13 70 7 66 57 242 82 287 8 14 14 34 14 43 0 12 5 15 18 10 9 -4 44 -16 77 -27 33 -11 74 -26 92 -34 17 -8 37 -14 45 -14 8 0 18 -4 23 -8 6 -5 37 -19 70 -32 33 -12 83 -33 112 -46 28 -13 55 -24 59 -24 4 0 35 -13 68 -29 154 -72 244 -65 289 23 43 85 34 134 -44 230 -59 74 -345 367 -407 418 l-34 28 34 27 c18 15 38 33 43 39 6 6 42 30 80 54 39 24 81 50 95 59 36 22 171 81 187 81 7 0 17 -10 22 -22 5 -13 33 -75 64 -138 30 -63 69 -151 87 -194 17 -44 36 -87 40 -95 5 -9 24 -56 42 -104 43 -114 85 -162 150 -172 64 -10 104 1 142 40 32 32 38 48 54 155 2 14 5 160 8 325 2 165 4 300 4 301 0 1 121 -14 165 -20z"/>
<path d="M4644 5157 c-35 -27 -34 -88 2 -116 35 -27 66 -26 100 2 53 46 25 126 -46 131 -19 1 -42 -5 -56 -17z"/>
<path d="M5252 5155 c-51 -44 -15 -135 54 -135 35 0 74 45 74 85 0 62 -78 93 -128 50z"/>
<path d="M4782 4813 c-22 -4 -52 -48 -52 -77 0 -24 59 -76 86 -76 33 0 74 42 74 76 0 31 -45 85 -69 83 -9 -1 -26 -4 -39 -6z"/>
<path d="M5137 4792 c-16 -17 -27 -39 -27 -56 0 -34 41 -76 74 -76 27 0 86 52 86 76 0 34 -30 71 -61 78 -44 9 -42 9 -72 -22z"/>
</g>
<g id="layer107" fill="#f3f3f3" stroke="none">
<path d="M0 4745 l0 -4745 4995 0 4995 0 0 4745 0 4745 -4995 0 -4995 0 0 -4745z m5795 3015 c94 -2 118 -5 85 -10 -30 -5 4 -8 105 -9 83 0 195 -8 249 -16 55 -8 124 -15 153 -15 79 0 247 -22 255 -33 3 -6 32 -11 65 -13 32 -1 84 -6 116 -10 49 -6 57 -5 57 10 0 20 14 21 30 1 6 -7 33 -17 58 -20 86 -11 103 -17 129 -41 18 -17 38 -24 64 -24 32 0 39 -3 39 -20 0 -14 7 -20 21 -20 15 0 19 -5 15 -17 -18 -67 -18 -83 3 -83 12 0 21 6 21 14 0 8 5 18 10 21 6 3 10 -4 10 -18 0 -20 -6 -26 -32 -30 -18 -4 -43 -9 -55 -13 -14 -4 -23 -2 -23 4 0 6 8 13 18 16 9 2 -3 3 -28 2 -25 -1 -64 -12 -86 -24 -34 -17 -48 -19 -75 -12 -36 11 -52 4 -29 -11 25 -15 -5 -27 -69 -26 -31 0 -66 -5 -77 -11 -29 -16 -178 -33 -182 -21 -5 14 -17 11 -42 -11 -25 -22 -42 -25 -68 -11 -22 12 -271 -6 -288 -20 -8 -6 -11 -16 -8 -21 7 -11 -20 2 -51 25 -14 11 -26 12 -44 6 -17 -7 -27 -6 -31 2 -5 6 -10 7 -13 2 -15 -23 -67 -2 -67 27 0 19 -44 60 -64 60 -6 0 3 -8 19 -19 32 -19 43 -55 23 -78 -14 -17 -7 -23 46 -44 l43 -16 17 28 c21 36 47 34 112 -8 28 -18 54 -33 57 -33 3 0 26 -13 50 -30 25 -16 49 -30 55 -30 17 0 21 -54 6 -71 -20 -22 -19 -24 28 -58 l41 -30 24 25 c28 30 63 27 98 -9 12 -12 39 -35 60 -52 21 -16 57 -47 79 -67 l41 -37 -23 -31 c-22 -29 -22 -31 -5 -53 9 -13 27 -31 40 -40 22 -17 24 -17 53 5 l31 23 37 -41 c20 -22 51 -58 67 -79 17 -21 40 -48 52 -60 33 -32 39 -69 14 -94 -27 -27 -26 -35 5 -76 24 -32 27 -33 49 -19 28 18 70 5 80 -26 4 -13 12 -19 20 -16 9 3 12 0 8 -10 -3 -8 3 -26 13 -42 44 -64 74 -126 74 -150 0 -20 -29 -52 -47 -52 -10 0 -6 -14 12 -50 14 -27 27 -50 30 -50 2 0 15 4 29 9 33 13 72 -17 81 -62 4 -17 13 -45 20 -62 7 -16 21 -56 31 -88 l19 -59 -24 -19 c-13 -10 -30 -19 -37 -19 -14 0 -14 -5 6 -79 5 -20 13 -24 48 -26 48 -2 53 -6 58 -37 2 -13 6 -39 9 -58 12 -69 24 -147 28 -185 1 -14 -7 -22 -30 -30 -45 -15 -46 -17 -38 -75 6 -45 9 -50 27 -44 13 4 28 -2 44 -17 23 -21 24 -28 24 -149 0 -121 -1 -128 -24 -149 -16 -15 -31 -21 -44 -17 -18 6 -21 1 -27 -44 -8 -58 -7 -60 38 -75 34 -11 34 -11 22 -90 -3 -22 -7 -52 -9 -66 -1 -14 -6 -30 -9 -36 -4 -6 -8 -30 -9 -52 -2 -49 -18 -65 -66 -66 -29 -1 -37 -6 -42 -26 -20 -74 -20 -79 -6 -79 7 0 24 -9 37 -19 l24 -19 -19 -59 c-10 -32 -24 -71 -31 -88 -7 -16 -16 -45 -20 -62 -9 -45 -48 -75 -81 -62 -14 5 -27 9 -29 9 -3 0 -16 -23 -30 -50 -16 -31 -21 -50 -13 -50 18 0 48 -31 48 -50 0 -26 -29 -86 -74 -152 -10 -16 -16 -34 -13 -42 4 -10 1 -13 -8 -10 -8 3 -16 -3 -20 -16 -10 -31 -52 -44 -80 -26 -22 14 -25 13 -49 -19 -31 -41 -32 -49 -5 -76 25 -25 19 -62 -14 -94 -12 -12 -35 -39 -52 -60 -16 -21 -47 -57 -67 -79 l-37 -41 -31 23 c-29 22 -31 22 -53 5 -13 -9 -31 -27 -40 -40 -17 -22 -17 -24 5 -53 l23 -31 -41 -37 c-22 -20 -58 -50 -79 -67 -21 -16 -48 -40 -60 -52 -35 -36 -70 -39 -98 -9 l-24 25 -41 -30 c-47 -34 -48 -36 -28 -58 17 -19 10 -71 -9 -71 -6 0 -31 -14 -54 -30 -23 -17 -52 -35 -64 -41 -12 -6 -38 -19 -57 -29 -53 -29 -86 -26 -101 9 l-13 29 -48 -24 c-26 -13 -48 -26 -48 -29 0 -2 4 -15 9 -29 14 -36 -15 -69 -78 -85 -28 -7 -53 -17 -57 -22 -3 -5 -14 -9 -25 -9 -11 0 -38 -9 -60 -20 l-41 -19 -24 24 c-13 13 -24 31 -24 40 0 12 -6 14 -27 9 -79 -20 -76 -17 -78 -62 -3 -51 -5 -54 -52 -58 -21 -2 -49 -7 -63 -11 -14 -3 -34 -8 -45 -9 -11 -2 -36 -6 -55 -10 -75 -14 -84 -12 -96 26 -11 34 -13 35 -67 35 -53 1 -55 0 -52 -25 2 -15 -6 -34 -18 -48 -19 -21 -29 -22 -147 -22 -118 0 -128 1 -147 22 -12 14 -20 33 -18 48 3 25 1 26 -52 25 -54 0 -56 -1 -67 -35 -12 -38 -21 -40 -96 -26 -19 4 -47 8 -61 10 -14 1 -30 6 -36 9 -6 4 -30 8 -52 9 -49 2 -65 18 -66 66 -1 29 -6 37 -26 42 -76 20 -79 21 -79 5 0 -9 -11 -27 -24 -40 l-24 -24 -41 19 c-22 11 -49 20 -60 20 -11 0 -22 4 -25 9 -4 5 -29 15 -57 22 -63 16 -92 49 -78 85 5 14 9 27 9 29 0 3 -22 16 -48 29 l-48 24 -13 -29 c-15 -35 -48 -38 -101 -9 -19 10 -45 23 -57 29 -12 6 -41 24 -64 41 -23 16 -48 30 -54 30 -19 0 -26 52 -9 71 20 22 19 24 -28 58 l-41 30 -24 -25 c-28 -30 -63 -27 -98 9 -12 12 -39 36 -60 52 -21 17 -57 47 -79 67 l-41 37 23 31 c22 29 22 31 5 53 -9 13 -27 31 -40 40 -22 17 -24 17 -53 -5 l-31 -23 -37 41 c-20 22 -50 58 -67 79 -16 21 -40 48 -52 60 -33 32 -39 69 -14 94 27 27 26 35 -5 76 -24 32 -27 33 -49 19 -28 -18 -70 -5 -80 26 -4 13 -12 19 -20 16 -9 -3 -12 0 -8 10 3 8 -3 26 -13 42 -44 64 -74 126 -74 150 0 20 29 52 47 52 10 0 6 14 -12 50 -14 28 -27 50 -30 50 -2 0 -15 -4 -29 -9 -33 -13 -72 17 -81 62 -4 17 -13 46 -20 62 -7 17 -21 56 -31 88 l-19 59 24 19 c13 10 30 19 37 19 14 0 14 5 -6 79 -5 20 -13 24 -48 26 -51 3 -54 5 -58 52 -2 21 -7 49 -11 63 -3 14 -8 34 -9 45 -2 11 -6 38 -9 60 -12 80 -12 79 25 91 34 11 35 13 35 68 1 55 0 57 -23 51 -18 -4 -32 0 -48 16 -23 21 -24 29 -24 149 0 120 1 128 24 149 16 16 30 20 48 16 23 -6 24 -4 23 51 0 55 -1 57 -35 68 -26 8 -34 17 -33 31 4 38 16 116 28 185 3 19 7 45 9 58 5 31 10 35 58 37 35 2 43 6 48 26 20 74 20 79 6 79 -7 0 -24 9 -37 19 l-24 19 19 59 c10 32 24 72 31 88 7 17 16 45 20 62 9 45 48 75 81 62 14 -5 27 -9 29 -9 3 0 16 23 30 50 16 31 21 50 13 50 -18 0 -48 31 -48 50 0 26 29 86 74 152 10 16 16 34 13 42 -4 10 -1 13 8 10 8 -3 16 3 20 16 10 31 52 44 80 26 22 -14 25 -13 49 19 31 41 32 49 5 76 -25 25 -19 62 14 94 12 12 36 39 52 60 17 21 47 57 67 79 l37 41 31 -23 c29 -22 31 -22 53 -5 13 9 31 27 40 40 17 22 17 24 -5 53 l-23 31 41 37 c22 20 58 51 79 67 21 17 48 40 60 52 35 36 70 39 98 9 l24 -25 41 30 c47 34 48 36 28 58 -15 17 -11 71 6 71 6 0 30 14 55 30 24 17 47 30 50 30 3 0 29 15 57 33 65 43 91 44 112 7 16 -25 44 -32 44 -9 0 4 -7 6 -15 3 -8 -4 -15 -2 -15 4 0 11 18 11 37 -1 14 -9 63 9 63 22 0 5 -4 13 -10 16 -5 3 -10 15 -10 26 0 10 -4 19 -9 19 -11 0 -9 -33 3 -42 6 -4 4 -13 -3 -22 -15 -18 -36 -22 -25 -4 5 8 0 9 -14 6 -29 -8 -28 0 1 13 l22 10 -22 -5 c-13 -2 -26 0 -29 6 -4 7 -9 6 -14 -1 -4 -8 -15 -9 -31 -3 -18 7 -32 4 -62 -16 -30 -20 -40 -23 -50 -13 -9 10 -8 11 7 5 12 -5 17 -4 13 3 -15 24 -262 52 -297 33 -14 -8 -26 -8 -41 1 -12 6 -67 13 -122 16 -67 4 -109 11 -125 21 -15 9 -45 15 -81 15 -65 -1 -96 11 -71 26 23 15 7 22 -29 11 -27 -7 -41 -5 -75 12 -39 21 -40 22 -16 28 l24 6 -24 17 c-24 17 -25 17 -28 -6 -3 -22 -7 -24 -50 -21 -26 1 -37 1 -24 -2 12 -3 22 -10 22 -16 0 -6 -11 -8 -26 -4 -15 4 -39 9 -54 12 -19 4 -35 19 -50 46 l-22 40 21 21 21 21 0 -30 c0 -41 21 -84 43 -84 19 0 20 1 8 53 -10 42 7 71 36 60 9 -4 19 1 25 10 5 10 18 17 28 17 11 0 20 5 20 10 0 6 -8 10 -17 10 -14 0 -14 3 -5 12 10 10 14 10 20 0 6 -9 18 -7 48 9 25 13 54 19 81 17 24 -1 48 3 55 10 7 7 18 12 25 12 7 0 13 5 13 10 0 16 31 12 51 -6 16 -14 25 -15 68 -4 28 6 55 9 61 5 6 -4 16 -2 23 4 17 13 143 31 302 41 72 5 162 14 200 20 39 6 120 10 180 10 138 -2 160 0 120 10 -17 4 57 8 169 8 109 0 200 3 203 5 4 4 1017 2 1318 -3z m1350 -150 c3 -5 -1 -10 -9 -10 -9 0 -16 5 -16 10 0 6 4 10 9 10 6 0 13 -4 16 -10z m72 -17 c-4 -3 -10 -3 -14 0 -3 4 0 7 7 7 7 0 10 -3 7 -7z m112 -90 c1 -12 -17 -28 -24 -21 -3 2 -12 21 -20 42 l-16 39 30 -24 c16 -13 30 -29 30 -36z m-1283 -218 c4 -8 13 -15 21 -15 8 0 12 4 9 8 -2 4 4 9 15 9 21 2 22 1 13 -21 -9 -24 -84 -2 -84 25 0 15 20 10 26 -6z m-2136 1 c0 -3 -4 -8 -10 -11 -5 -3 -10 -1 -10 4 0 6 5 11 10 11 6 0 10 -2 10 -4z m-185 -16 c3 -5 4 -10 1 -10 -3 0 -8 5 -11 10 -3 6 -4 10 -1 10 3 0 8 -4 11 -10z m2565 6 c0 -3 -5 -8 -12 -12 -7 -4 -8 -3 -4 4 7 12 16 16 16 8z m-2583 -22 c-3 -3 -12 -4 -19 -1 -8 3 -5 6 6 6 11 1 17 -2 13 -5z m2600 -1 c-4 -3 -10 -3 -14 0 -3 4 0 7 7 7 7 0 10 -3 7 -7z"/>
<path d="M3111 7644 c0 -11 3 -14 6 -6 3 7 2 16 -1 19 -3 4 -6 -2 -5 -13z"/>
<path d="M6956 7567 c3 -10 9 -15 12 -12 3 3 0 11 -7 18 -10 9 -11 8 -5 -6z"/>
<path d="M4673 7553 c4 -3 10 -3 14 0 3 4 0 7 -7 7 -7 0 -10 -3 -7 -7z"/>
<path d="M6993 7523 c4 -3 10 -3 14 0 3 4 0 7 -7 7 -7 0 -10 -3 -7 -7z"/>
<path d="M4223 7453 c4 -3 10 -3 14 0 3 4 0 7 -7 7 -7 0 -10 -3 -7 -7z"/>
<path d="M5763 7453 c4 -3 10 -3 14 0 3 4 0 7 -7 7 -7 0 -10 -3 -7 -7z"/>
<path d="M5830 7430 c8 -5 20 -10 25 -10 6 0 3 5 -5 10 -8 5 -19 10 -25 10 -5 0 -3 -5 5 -10z"/>
<path d="M2960 7420 c0 -5 5 -10 10 -10 6 0 10 5 10 10 0 6 -4 10 -10 10 -5 0 -10 -4 -10 -10z"/>
<path d="M4143 7423 c4 -3 10 -3 14 0 3 4 0 7 -7 7 -7 0 -10 -3 -7 -7z"/>
<path d="M7020 7420 c0 -5 5 -10 10 -10 6 0 10 5 10 10 0 6 -4 10 -10 10 -5 0 -10 -4 -10 -10z"/>
<path d="M4113 7413 c4 -3 10 -3 14 0 3 4 0 7 -7 7 -7 0 -10 -3 -7 -7z"/>
<path d="M4300 7411 c0 -10 19 -25 25 -20 1 2 -3 10 -11 17 -8 7 -14 8 -14 3z"/>
<path d="M5682 7404 c-7 -8 -8 -14 -3 -14 10 0 25 19 20 25 -2 1 -10 -3 -17 -11z"/>
<path d="M5873 7413 c4 -3 10 -3 14 0 3 4 0 7 -7 7 -7 0 -10 -3 -7 -7z"/>
<path d="M4083 7403 c4 -3 10 -3 14 0 3 4 0 7 -7 7 -7 0 -10 -3 -7 -7z"/>
<path d="M5903 7403 c4 -3 10 -3 14 0 3 4 0 7 -7 7 -7 0 -10 -3 -7 -7z"/>
<path d="M4053 7393 c4 -3 10 -3 14 0 3 4 0 7 -7 7 -7 0 -10 -3 -7 -7z"/>
<path d="M5933 7393 c4 -3 10 -3 14 0 3 4 0 7 -7 7 -7 0 -10 -3 -7 -7z"/>
<path d="M3999 7369 l-24 -20 30 17 c39 24 40 24 28 24 -6 0 -21 -9 -34 -21z"/>
<path d="M3815 7325 c-16 -14 -35 -23 -42 -21 -7 3 -10 -1 -6 -10 7 -18 7 -18 38 10 15 14 34 23 43 19 13 -4 14 -3 3 5 -11 8 -11 10 0 15 8 3 10 6 4 6 -5 0 -23 -11 -40 -24z"/>
<path d="M6149 7341 c7 -5 9 -11 5 -13 -5 -3 -4 -3 3 -2 6 2 23 -8 38 -22 31 -28 31 -28 39 -8 3 9 2 12 -5 9 -5 -4 -25 5 -44 19 -18 14 -37 26 -42 26 -4 0 -2 -4 6 -9z"/>
<path d="M3883 7333 c4 -3 10 -3 14 0 3 4 0 7 -7 7 -7 0 -10 -3 -7 -7z"/>
<path d="M6046 7327 c3 -10 9 -15 12 -12 3 3 0 11 -7 18 -10 9 -11 8 -5 -6z"/>
<path d="M6103 7333 c4 -3 10 -3 14 0 3 4 0 7 -7 7 -7 0 -10 -3 -7 -7z"/>
<path d="M3773 7323 c4 -3 10 -3 14 0 3 4 0 7 -7 7 -7 0 -10 -3 -7 -7z"/>
<path d="M3933 7323 c4 -3 10 -3 14 0 3 4 0 7 -7 7 -7 0 -10 -3 -7 -7z"/>
<path d="M6213 7323 c4 -3 10 -3 14 0 3 4 0 7 -7 7 -7 0 -10 -3 -7 -7z"/>
<path d="M4867 6754 c-2 -2 -30 -6 -63 -9 -61 -6 -88 -10 -139 -21 -16 -3 -47 -8 -68 -11 -20 -3 -40 -9 -43 -14 -3 -5 -18 -9 -34 -9 -16 0 -32 -4 -35 -10 -3 -5 -17 -10 -30 -10 -13 0 -26 -4 -30 -9 -3 -5 -20 -12 -38 -16 -17 -4 -86 -33 -152 -66 -145 -73 -179 -92 -227 -130 -20 -16 -41 -29 -46 -29 -6 0 -12 -7 -16 -15 -3 -8 -12 -15 -19 -15 -28 0 -346 -326 -347 -356 -1 -5 -14 -25 -30 -44 -17 -19 -30 -38 -30 -44 0 -5 -10 -23 -23 -40 -20 -29 -103 -190 -132 -261 -7 -16 -23 -66 -36 -110 -12 -44 -26 -85 -31 -91 -4 -6 -5 -14 -2 -17 3 -3 2 -12 -2 -19 -4 -7 -9 -19 -10 -28 -2 -8 -5 -28 -9 -45 -41 -209 -41 -461 0 -670 4 -16 7 -37 9 -45 1 -9 6 -21 10 -28 4 -7 5 -16 2 -19 -3 -3 -2 -11 2 -17 5 -6 19 -47 31 -91 13 -44 29 -93 36 -110 29 -71 112 -232 132 -261 13 -17 23 -35 23 -40 0 -6 13 -25 30 -44 16 -19 29 -39 30 -44 1 -30 319 -356 347 -356 7 0 16 -7 19 -15 4 -8 10 -15 16 -15 5 0 26 -13 46 -29 48 -38 82 -57 227 -130 66 -33 135 -62 152 -66 18 -4 35 -11 38 -16 4 -5 17 -9 30 -9 13 0 27 -5 30 -10 3 -5 19 -10 35 -10 16 0 31 -4 34 -9 3 -5 23 -11 43 -14 21 -3 52 -8 68 -11 101 -22 185 -29 335 -29 150 0 234 7 335 29 17 3 47 8 68 11 20 3 40 9 43 14 3 5 18 9 34 9 16 0 32 5 35 10 3 6 17 10 30 10 13 0 26 4 30 9 3 5 20 13 37 17 18 3 39 10 48 14 8 5 62 31 120 60 129 63 164 83 212 121 20 16 41 29 46 29 6 0 12 7 16 15 3 8 12 15 20 15 21 0 289 267 310 308 9 17 21 32 26 32 6 0 10 6 10 13 1 6 14 28 30 47 17 19 30 38 30 44 0 5 10 23 23 40 20 29 103 190 132 261 7 17 23 66 36 110 12 44 26 85 31 91 4 6 5 14 2 17 -3 3 -2 12 2 19 4 7 9 19 10 28 2 8 5 29 9 45 41 209 41 461 0 670 -4 17 -7 37 -9 45 -1 9 -6 21 -10 28 -4 7 -5 16 -2 19 3 3 2 11 -2 17 -5 6 -19 47 -31 91 -13 44 -29 94 -36 110 -29 71 -112 232 -132 261 -13 17 -23 35 -23 40 0 6 -13 25 -30 44 -16 19 -29 41 -30 48 0 6 -4 12 -10 12 -5 0 -17 15 -26 33 -21 40 -289 307 -310 307 -8 0 -17 7 -20 15 -4 8 -10 15 -16 15 -5 0 -26 13 -46 29 -48 38 -82 57 -227 130 -66 33 -135 62 -152 66 -18 4 -35 11 -38 16 -4 5 -17 9 -30 9 -13 0 -27 5 -30 10 -3 6 -19 10 -35 10 -16 0 -31 4 -34 9 -3 5 -23 11 -43 14 -21 3 -51 8 -68 11 -36 8 -75 14 -130 21 -47 6 -333 13 -338 9z m346 -85 c18 -4 50 -10 72 -13 44 -5 70 -10 130 -25 101 -25 123 -31 151 -46 16 -8 34 -15 41 -15 6 0 24 -7 40 -15 15 -8 60 -29 98 -48 39 -18 89 -45 112 -60 24 -15 46 -27 51 -27 5 0 27 -16 49 -35 23 -19 45 -35 49 -35 4 0 14 -7 23 -15 9 -8 30 -27 47 -42 115 -104 202 -194 257 -265 10 -13 33 -43 52 -68 19 -25 35 -48 35 -53 0 -4 12 -26 27 -50 15 -23 42 -73 60 -112 19 -38 40 -83 48 -98 8 -16 15 -34 15 -40 0 -7 7 -25 15 -41 15 -28 21 -50 46 -151 14 -56 19 -81 24 -112 2 -16 7 -48 11 -73 11 -66 12 -87 12 -230 0 -143 -1 -164 -12 -230 -4 -25 -9 -58 -12 -75 -4 -32 -7 -45 -23 -110 -25 -101 -31 -123 -46 -151 -8 -16 -15 -34 -15 -41 0 -6 -7 -24 -15 -40 -8 -15 -29 -59 -48 -98 -18 -38 -45 -89 -60 -112 -15 -24 -27 -46 -27 -50 0 -5 -16 -28 -35 -53 -19 -25 -42 -55 -52 -68 -57 -75 -180 -202 -247 -257 -21 -16 -45 -38 -54 -47 -9 -10 -20 -18 -25 -18 -5 0 -27 -16 -50 -35 -22 -19 -44 -35 -49 -35 -5 0 -27 -12 -51 -27 -23 -15 -73 -42 -112 -60 -38 -19 -83 -40 -98 -48 -16 -8 -34 -15 -40 -15 -7 0 -25 -7 -41 -15 -28 -15 -50 -21 -151 -46 -56 -14 -81 -19 -112 -24 -16 -2 -48 -7 -73 -11 -66 -11 -87 -12 -230 -12 -143 0 -164 1 -230 12 -25 4 -57 9 -73 11 -31 5 -56 10 -112 24 -101 25 -123 31 -151 46 -16 8 -34 15 -41 15 -6 0 -24 7 -40 15 -15 8 -60 29 -99 48 -39 19 -88 46 -110 60 -21 15 -44 27 -50 27 -6 0 -29 16 -51 35 -23 19 -45 35 -49 35 -8 0 -7 -1 -128 112 -120 111 -138 131 -199 210 -10 13 -33 43 -52 68 -19 25 -35 48 -35 53 0 4 -12 26 -27 50 -14 23 -44 78 -66 122 -21 44 -43 88 -48 97 -5 10 -9 23 -9 30 0 7 -7 26 -15 42 -9 16 -20 48 -26 70 -27 108 -37 152 -44 196 -2 14 -7 45 -11 70 -11 66 -12 87 -12 230 0 143 1 164 12 230 4 25 9 56 11 70 7 44 17 88 44 196 6 22 17 54 26 70 8 16 15 34 15 41 0 6 7 24 15 40 8 15 29 60 48 98 18 39 45 89 60 112 15 24 27 46 27 50 0 5 16 28 35 53 19 25 42 55 52 68 57 75 180 202 247 257 21 17 45 38 54 48 9 9 20 17 25 17 5 0 27 16 50 35 22 19 44 35 49 35 5 0 27 12 51 27 23 15 74 42 112 60 39 19 83 40 98 48 16 8 33 15 38 15 6 0 31 9 56 21 53 24 177 54 269 65 23 3 55 9 70 13 39 11 387 11 427 0z"/>
<path d="M4877 6513 c-2 -1 -23 -5 -48 -7 -99 -11 -145 -18 -162 -27 -9 -6 -22 -7 -27 -4 -5 3 -11 1 -15 -5 -3 -5 -19 -10 -35 -10 -16 0 -32 -4 -35 -10 -3 -5 -17 -10 -30 -10 -13 0 -27 -4 -30 -10 -3 -5 -13 -10 -22 -10 -22 0 -136 -52 -233 -105 -123 -68 -363 -280 -443 -391 -15 -22 -38 -52 -50 -68 -60 -79 -171 -302 -184 -368 -3 -18 -9 -37 -13 -43 -9 -12 -25 -76 -22 -88 1 -4 -2 -16 -7 -25 -5 -10 -12 -40 -16 -67 -3 -28 -9 -70 -12 -95 -8 -58 -8 -282 0 -340 3 -25 9 -67 12 -95 4 -27 11 -58 17 -68 5 -10 7 -21 4 -24 -3 -3 2 -22 10 -42 8 -20 19 -56 25 -80 18 -82 133 -316 180 -367 10 -11 19 -26 19 -32 0 -7 4 -12 9 -12 4 0 21 -19 37 -42 32 -49 196 -217 246 -253 83 -61 144 -102 187 -127 91 -53 210 -108 234 -108 9 0 19 -4 22 -10 3 -5 17 -10 30 -10 13 0 26 -4 29 -9 6 -9 74 -26 89 -23 4 1 16 -2 25 -7 10 -5 40 -12 67 -16 28 -3 68 -9 90 -12 52 -7 298 -7 350 0 22 3 62 9 90 12 27 4 58 11 68 16 9 6 22 7 27 4 5 -3 11 -1 15 5 3 5 19 10 35 10 16 0 32 5 35 10 3 6 17 10 30 10 13 0 27 5 30 10 3 6 15 10 27 10 11 0 41 11 67 24 25 13 64 32 85 42 66 32 111 58 148 87 19 15 40 27 46 27 7 0 12 4 12 9 0 4 19 21 43 37 48 32 228 212 270 270 15 22 38 52 50 68 60 79 171 302 184 368 3 18 9 38 13 43 9 12 25 76 22 88 -1 4 2 16 7 25 5 10 12 40 16 67 3 28 9 70 12 95 3 25 6 101 6 170 0 69 -3 145 -6 170 -3 25 -9 67 -12 95 -4 27 -11 58 -17 68 -5 10 -7 21 -4 24 3 3 -2 22 -10 42 -8 20 -19 56 -25 80 -18 82 -133 316 -180 367 -10 11 -19 26 -19 32 0 7 -4 12 -9 12 -4 0 -21 19 -37 43 -32 48 -196 216 -246 252 -83 61 -144 102 -187 127 -91 53 -210 108 -234 108 -9 0 -19 5 -22 10 -3 6 -17 10 -30 10 -13 0 -26 4 -29 9 -6 9 -74 26 -89 23 -4 -1 -16 2 -25 7 -10 5 -40 12 -67 16 -28 3 -63 8 -80 11 -36 5 -304 12 -308 7z m323 -87 c25 -4 56 -9 70 -11 14 -2 39 -8 57 -13 17 -6 34 -8 37 -5 3 3 11 1 18 -4 7 -5 42 -18 78 -28 36 -10 70 -22 75 -25 6 -4 23 -10 38 -14 25 -6 28 -10 22 -34 -3 -14 -15 -45 -26 -69 -10 -23 -19 -47 -19 -53 0 -7 -7 -28 -16 -48 -9 -21 -20 -46 -24 -57 -4 -11 -15 -36 -23 -55 -9 -19 -23 -55 -32 -80 -18 -47 -28 -73 -53 -130 -9 -19 -22 -51 -30 -70 -8 -19 -19 -43 -24 -53 -5 -9 -11 -38 -15 -62 -13 -100 79 -186 184 -170 42 6 78 30 192 130 49 42 311 305 343 344 l27 32 38 -43 c63 -69 121 -160 181 -283 19 -38 38 -78 43 -88 12 -23 5 -34 -34 -52 -18 -8 -39 -18 -47 -23 -25 -14 -146 -69 -238 -108 -53 -22 -106 -46 -124 -55 -10 -5 -23 -9 -28 -9 -6 0 -37 -12 -68 -26 -164 -74 -186 -94 -186 -177 -1 -93 38 -146 119 -162 73 -15 107 -16 404 -20 l294 -4 2 -28 c1 -15 -2 -41 -6 -58 -5 -16 -10 -48 -13 -70 -10 -72 -17 -110 -26 -130 -5 -11 -16 -45 -25 -75 -9 -30 -20 -64 -25 -75 -5 -11 -12 -31 -15 -43 -8 -27 -27 -25 -102 9 -23 10 -47 19 -53 19 -7 0 -28 7 -48 16 -73 32 -98 43 -142 59 -99 37 -121 46 -201 84 -37 17 -73 31 -81 31 -8 0 -18 4 -24 10 -5 5 -31 13 -56 16 -71 10 -129 -22 -157 -86 -12 -27 -21 -57 -21 -67 0 -41 22 -91 57 -130 21 -23 56 -63 78 -89 48 -55 299 -307 345 -346 l32 -27 -50 -43 c-28 -24 -62 -51 -76 -61 -15 -10 -24 -22 -21 -28 3 -5 -1 -6 -9 -3 -8 3 -34 -7 -58 -22 -90 -58 -210 -109 -233 -101 -8 4 -24 28 -35 54 -12 26 -31 71 -44 98 -13 28 -30 66 -38 85 -8 19 -22 51 -30 70 -9 19 -24 57 -34 83 -9 26 -21 50 -25 53 -5 3 -9 12 -9 20 0 26 -80 194 -108 227 -22 25 -86 39 -138 31 -63 -9 -109 -55 -120 -121 -14 -82 -15 -99 -19 -402 l-4 -294 -28 -2 c-15 -1 -41 2 -58 6 -16 5 -48 10 -70 13 -22 2 -54 9 -72 14 -17 6 -34 8 -37 5 -3 -3 -11 -1 -18 4 -7 5 -42 18 -78 28 -36 10 -69 22 -75 25 -5 4 -23 10 -38 14 -25 6 -28 10 -22 34 3 14 15 45 26 69 10 23 19 47 19 53 0 7 6 26 14 43 7 18 21 48 29 67 8 19 23 55 32 80 23 62 44 114 73 180 9 19 22 51 30 70 8 19 19 43 24 53 21 43 21 105 -1 150 -18 36 -31 49 -71 66 -27 12 -57 21 -67 21 -41 0 -90 -22 -130 -57 -23 -21 -61 -54 -84 -73 -49 -41 -312 -302 -351 -349 l-27 -32 -38 43 c-62 69 -124 166 -175 273 -16 33 -35 73 -43 88 -18 34 -14 43 28 62 18 8 39 18 47 23 18 10 111 53 160 74 19 8 53 23 75 32 37 17 59 26 125 54 14 5 63 25 110 43 47 18 102 45 122 61 59 46 72 127 32 206 -18 37 -47 57 -99 67 -73 15 -107 16 -404 20 l-294 4 -2 28 c-1 15 2 42 6 58 5 17 10 48 13 70 10 72 17 110 26 130 5 11 16 45 25 75 9 30 20 64 25 75 5 11 12 31 15 43 8 27 27 25 102 -9 23 -10 47 -19 53 -19 7 0 27 -7 46 -15 81 -36 101 -44 144 -60 25 -9 55 -21 68 -26 12 -5 32 -13 45 -18 12 -5 52 -23 88 -40 37 -17 73 -31 81 -31 8 0 18 -4 24 -10 5 -5 31 -13 57 -16 69 -10 129 24 157 88 11 26 20 55 20 65 0 41 -22 91 -57 130 -21 23 -56 63 -78 89 -48 55 -300 308 -345 346 l-32 28 33 27 c19 15 39 33 44 39 9 10 45 35 84 59 9 6 34 21 56 35 79 50 208 105 228 97 14 -5 53 -84 121 -242 10 -22 24 -53 32 -68 8 -16 14 -33 14 -38 0 -10 39 -102 65 -152 8 -16 15 -34 15 -41 0 -16 57 -125 78 -149 22 -25 86 -39 138 -31 63 9 109 55 120 121 14 81 15 99 19 403 2 162 5 295 5 295 30 0 65 -3 100 -9z"/>
<path d="M4945 5374 c-23 -25 -25 -73 -4 -105 12 -17 25 -22 59 -22 50 0 73 23 74 75 2 63 -86 98 -129 52z"/>
<path d="M4644 5147 c-41 -48 -26 -97 35 -118 76 -27 130 78 67 130 -30 25 -75 20 -102 -12z"/>
<path d="M5251 5154 c-34 -30 -33 -79 3 -111 35 -30 67 -29 100 3 32 33 33 65 3 100 -30 34 -72 37 -106 8z"/>
<path d="M4782 4812 c-22 -7 -52 -51 -52 -77 0 -22 60 -75 84 -75 35 0 63 27 71 66 5 31 2 41 -21 65 -28 29 -40 32 -82 21z"/>
<path d="M5136 4791 c-23 -24 -26 -34 -21 -65 8 -39 36 -66 71 -66 24 0 84 53 84 74 0 33 -31 74 -61 80 -44 9 -42 9 -73 -23z"/>
<path d="M6084 7268 c-4 -7 -3 -8 4 -4 12 7 16 16 8 16 -3 0 -8 -5 -12 -12z"/>
</g>


</svg>