<?xml version="1.0" standalone="yes"?>
<svg xmlns="http://www.w3.org/2000/svg" width="514" height="515">
<path style="fill:#ffffff; stroke:none;" d="M0 0L0 515L514 515L514 0L0 0z"/>
<path style="fill:#ababab; stroke:none;" d="M241 9C237.305 9.46704 233.735 9.96909 230 10C229.707 7.39301 229.388 4.63959 226.772 3.26852C223.722 1.67029 219.177 3.22275 216 3.75308C207.824 5.11789 195.463 4.7955 198 16L187 18C186.46 15.4112 185.859 13.0244 182.891 12.358C179.042 11.4937 174.495 13.8687 171 15.1921C163.116 18.1775 152.583 19.4444 157 30C153.516 31.0036 150.342 32.6104 147 34C141.579 24.1295 133.064 32.3753 126 36.2307C122.793 37.9814 117.733 40.0625 116.816 44.0386C116.232 46.569 117.842 48.9196 119 51C115.727 52.5599 113.313 54.2064 111 57C109.534 55.449 107.977 53.3062 105.826 52.6566C100.386 51.0143 93.6761 59.0065 90 62.0803C87.208 64.4148 82.7736 67.17 81.9699 71.0038C81.3597 73.9149 83.6163 76.6555 85 79C82.901 80.1606 80.5338 82.8034 78.196 83.277C75.289 83.8659 73.1354 81.0273 70.0139 82.2878C66.3316 83.7748 63.6981 88.0703 61.2461 91C56.3021 96.9074 47.6982 104.184 57 110C54.5763 112.85 52.6068 115.62 51 119C48.9197 117.842 46.5689 116.232 44.0386 116.816C40.0626 117.733 37.9814 122.793 36.2307 126C32.3753 133.064 24.1295 141.579 34 147C32.6103 150.342 31.0036 153.516 30 157C19.5667 152.634 18.1391 163.071 15.3079 171C14.0355 174.563 11.4808 178.978 12.358 182.891C13.0233 185.859 15.412 186.46 18 187L16 198C4.73518 195.449 4.99107 207.801 3.72531 216C3.21914 219.279 1.4762 223.628 3.21836 226.772C4.65595 229.365 7.36241 229.704 10 230C9.99775 232.91 10.6423 237.12 8.3966 239.397C6.44804 241.373 2.93629 240.601 1.6034 243.318C-1.08282 248.793 0.890293 259.952 1.00463 265.999C1.04271 268.014 0.878772 270.555 2.60339 271.977C4.5601 273.59 7.41412 272.976 8.97222 275.318C10.5355 277.668 9.99793 281.323 10 284C-1.25721 285.265 3.60928 296.244 4.91898 304C5.51694 307.541 5.47999 312.872 8.43364 315.393C10.6847 317.314 13.4199 316.584 16 316L18 327C15.412 327.54 13.0233 328.141 12.358 331.109C11.4808 335.022 14.0355 339.437 15.3079 343C18.1391 350.929 19.5667 361.366 30 357C31.0036 360.484 32.6103 363.658 34 367C24.0392 372.344 32.2533 380.94 36.2809 388C38.0555 391.111 40.1603 396.282 44.0417 397.184C46.5676 397.772 48.9239 396.156 51 395C52.5599 398.273 54.2064 400.687 57 403C48.8235 410.726 55.3074 415.904 61.2461 423C63.6964 425.928 66.3325 430.23 70.0147 431.712C73.165 432.98 75.3979 430.118 78.3349 430.723C80.6043 431.19 82.9515 433.865 85 435C83.6163 437.345 81.3597 440.085 81.9699 442.996C82.7736 446.83 87.208 449.585 90 451.92C95.9733 456.914 104.027 466.553 110 457C112.85 459.424 115.62 461.393 119 463C117.842 465.08 116.232 467.431 116.816 469.961C117.808 474.261 123.562 476.412 127 478.306C134.003 482.163 141.779 489.732 147 480C150.342 481.39 153.516 482.996 157 484C156.001 486.387 154.639 489.187 156.068 491.725C157.257 493.837 159.885 494.732 162.001 495.572C167.543 497.772 176.807 503.008 182.891 501.642C185.859 500.976 186.46 498.589 187 496L198 498C194.804 509.236 206.974 508.907 215 510.247C218.444 510.822 223.494 512.6 226.772 510.782C229.365 509.343 229.703 506.638 230 504L241 505C240.348 507.698 240.032 510.211 242.434 512.258C245.192 514.607 249.649 513.999 253 514C260.227 514.003 275.805 516.615 273 505L284 504C284.294 506.634 284.627 509.49 287.228 510.933C290.211 512.587 294.866 510.939 298 510.414C305.803 509.105 319.148 509.085 316 498L327 496C327.54 498.589 328.141 500.976 331.109 501.642C337.193 503.008 346.457 497.772 351.999 495.572C354.115 494.732 356.743 493.837 357.932 491.725C359.361 489.187 357.999 486.387 357 484C360.485 482.996 363.658 481.39 367 480C372.29 489.859 380.953 481.884 388 477.85C391.177 476.031 396.267 473.937 397.184 469.961C397.768 467.431 396.158 465.08 395 463C398.378 461.568 400.681 459.841 403 457C404.67 458.768 406.462 461.253 409.091 461.539C411.7 461.824 414.051 460.007 416 458.532C420.725 454.956 429.442 449.629 431.712 443.985C433.365 439.876 428.979 436.405 432.692 432.692C436.22 429.164 439.059 432.882 442.996 432.031C446.118 431.356 448.306 428.279 450.246 425.996C455.426 419.903 467.152 410.347 457 404C459.424 401.15 461.393 398.38 463 395C465.076 396.156 467.432 397.772 469.958 397.184C473.84 396.282 475.945 391.111 477.719 388C481.747 380.941 489.961 372.344 480 367C481.39 363.658 482.996 360.484 484 357C494.433 361.366 495.861 350.929 498.692 343C499.964 339.437 502.519 335.022 501.642 331.109C500.977 328.141 498.588 327.54 496 327L498 316C508.996 319.122 508.499 306.634 510.001 299C510.68 295.547 512.629 290.561 510.782 287.228C509.344 284.635 506.638 284.296 504 284C504.031 280.265 504.533 276.695 505 273C507.212 272.974 510.415 273.373 511.972 271.397C513.465 269.502 512.995 266.241 513 264C513.012 258.36 514.909 248.438 512.397 243.318C510.948 240.366 506.824 241.382 505.028 238.682C503.464 236.332 504.002 232.677 504 230C506.638 229.704 509.344 229.365 510.782 226.772C512.513 223.648 510.815 219.251 510.25 216C508.831 207.827 509.355 195.429 498 198L496 187C498.588 186.46 500.977 185.859 501.642 182.891C502.519 178.978 499.964 174.563 498.692 171C495.861 163.071 494.433 152.634 484 157C482.996 153.516 481.39 150.342 480 147C489.871 141.579 481.625 133.064 477.769 126C476.019 122.793 473.937 117.733 469.961 116.816C467.431 116.232 465.08 117.842 463 119C461.44 115.727 459.794 113.313 457 111C458.768 109.33 461.253 107.538 461.539 104.909C461.824 102.3 460.007 99.949 458.532 98C454.955 93.2742 449.63 84.5596 443.985 82.2878C439.635 80.537 436.49 85.4803 432.653 81.2963C429.284 77.6226 432.896 75.0079 432.031 71.0038C431.356 67.8818 428.279 65.6942 425.996 63.7538C419.903 58.574 410.347 46.8484 404 57C401.142 54.5346 398.479 52.4714 395 51C396.158 48.9196 397.768 46.5689 397.184 44.0386C396.192 39.7387 390.438 37.5885 387 35.6944C379.997 31.8369 372.221 24.2682 367 34C363.658 32.6103 360.484 31.0036 357 30C361.417 19.4444 350.884 18.1776 343 15.1921C339.505 13.8687 334.958 11.4937 331.109 12.358C328.141 13.0244 327.54 15.4112 327 18L316 16C318.537 4.7955 306.176 5.11789 298 3.75308C294.823 3.22275 290.278 1.67029 287.228 3.26852C284.612 4.63959 284.293 7.39301 284 10C281.323 9.99792 277.668 10.5356 275.318 8.97223C272.618 7.17609 273.634 3.05176 270.682 1.60339C265.562 -0.908508 255.64 0.988403 250 1C247.759 1.00464 244.498 0.534668 242.603 2.02777C240.627 3.58524 241.026 6.78833 241 9z"/>
<path style="fill:#ffffff; stroke:none;" d="M249 81.4244C234.734 83.2975 220.965 84.4424 207 88.4275C178.987 96.4212 152.477 112.278 132.015 133.004C116.754 148.462 104.256 167.054 95.7199 187C86.4161 208.739 80.8369 233.287 81.0046 257C81.5202 329.897 127.92 397.7 197 422.308C224.498 432.103 253.218 434.503 282 430.718C367.436 419.484 432.992 342.876 432.992 257C432.992 172.367 369.122 96.1258 285 83.7284C273.409 82.0202 260.705 79.8875 249 81.4244z"/>
<path style="fill:#ababab; stroke:none;" d="M238 89.4252C212.541 92.8907 187.579 100.802 166 115.003C146.128 128.081 129.544 144.182 116.333 164C72.8321 229.258 81.7413 321.8 138.015 376.961C176.03 414.225 229.559 430.776 282 423.711C305.141 420.594 328.534 411.808 348 398.997C373.18 382.426 394.179 360.102 407.73 333C444.212 260.036 422.053 166.876 355 119.721C337.648 107.518 318.585 98.7488 298 93.6266C279.035 88.9072 257.477 86.7739 238 89.4252z"/>
<path style="fill:#ffffff; stroke:none;" d="M252 105.424C238.75 107.163 225.959 107.859 213 111.721C175.662 122.846 143.109 148.792 124.312 183C93.052 239.886 101.709 311.882 145.17 360C155.427 371.356 167.863 380.776 181 388.548C194.416 396.485 209.749 402.099 225 405.199C241.29 408.51 257.482 409.69 274 407.715C348.772 398.772 407.131 335.663 408.985 260C410.731 188.742 358.849 122.994 289 108.801C277.39 106.442 263.818 103.873 252 105.424z"/>
<path style="fill:#ababab; stroke:none;" d="M197 126C202.626 143.29 209.391 160.239 216.424 177C219.24 183.71 225.191 192.474 223.463 200C220.781 211.684 208.268 215.588 199 209.225C180.958 196.84 163.23 179.364 150 162C144.929 164.473 141.91 169.457 138.721 174C131.788 183.876 124.816 195.146 122 207C141.803 215.245 161.054 224.788 181 232.8C188.347 235.751 196.405 240.843 195.772 250C194.973 261.543 184.286 264.19 175 265.424C154.284 268.178 133.722 266.014 113 266C113.138 282.672 117.737 302.481 126 317C142.605 311.597 158.959 305.177 175 298.281C181.771 295.37 191.448 289.203 199 290.345C210.368 292.063 215.891 304.638 209.895 314C205.487 320.884 199.589 326.927 194.166 333C184.454 343.877 173.966 355.571 162 364C164.473 369.071 169.457 372.09 174 375.279C183.821 382.173 195.218 389.202 207 392C215.245 372.196 224.788 352.947 232.8 333C235.751 325.653 240.843 317.595 250 318.228C261.388 319.016 264.343 329.728 265.576 339C268.324 359.675 266.002 380.317 266 401C282.776 400.654 302.367 396.327 317 388C311.359 370.665 304.474 353.799 297.424 337C294.644 330.374 288.841 321.387 290.537 314C293.219 302.316 305.732 298.412 315 304.775C333.1 317.2 350.723 334.574 364 352C369.071 349.527 372.09 344.543 375.279 340C382.173 330.179 389.202 318.782 392 307C372.197 298.755 352.946 289.212 333 281.2C325.653 278.249 317.595 273.157 318.228 264C319.016 252.612 329.728 249.657 339 248.424C359.666 245.678 380.329 247.943 401 248C400.654 231.246 396.32 211.62 388 197C370.662 202.642 353.803 209.525 337 216.576C330.374 219.356 321.387 225.159 314 223.463C302.234 220.762 298.533 208.318 304.75 199C309.328 192.139 315.23 186.174 320.701 180.039C330.121 169.475 340.4 158.171 352 150C349.527 144.929 344.543 141.91 340 138.721C330.179 131.827 318.782 124.798 307 122C298.757 141.798 289.211 161.055 281.2 181C278.249 188.347 273.157 196.405 264 195.772C252.457 194.973 249.81 184.286 248.576 175C245.821 154.276 247.943 133.728 248 113C231.19 113.347 211.67 117.652 197 126z"/>
<path style="fill:#ffffff; stroke:none;" d="M234.148 225.028C226.592 229.483 233.845 242.122 241.786 237.539C250.297 232.628 242.337 220.199 234.148 225.028M272.109 225.028C264.161 229.485 271.027 241.884 278.941 237.806C287.451 233.42 280.851 220.125 272.109 225.028M225.015 259.667C215.296 261.673 219.129 276.288 228.956 273.562C237.525 271.186 233.557 257.904 225.015 259.667M286.015 259.617C276.881 261.735 279.596 276.202 288.96 274.091C298.106 272.029 295.303 257.462 286.015 259.617M255.015 281.786C245.773 284.836 250.025 299.17 258.985 296.214C268.227 293.164 263.975 278.83 255.015 281.786z"/>
</svg>
