<?xml version="1.0" encoding="UTF-8" standalone="no"?>
<svg
   xmlns:dc="http://purl.org/dc/elements/1.1/"
   xmlns:cc="http://creativecommons.org/ns#"
   xmlns:rdf="http://www.w3.org/1999/02/22-rdf-syntax-ns#"
   xmlns:svg="http://www.w3.org/2000/svg"
   xmlns="http://www.w3.org/2000/svg"
   xmlns:sodipodi="http://sodipodi.sourceforge.net/DTD/sodipodi-0.dtd"
   xmlns:inkscape="http://www.inkscape.org/namespaces/inkscape"
   inkscape:version="1.0beta2 (unknown)"
   sodipodi:docname="car.svg"
   id="svg102"
   version="1.1"
   height="400"
   width="500">
  <metadata
     id="metadata108">
    <rdf:RDF>
      <cc:Work
         rdf:about="">
        <dc:format>image/svg+xml</dc:format>
        <dc:type
           rdf:resource="http://purl.org/dc/dcmitype/StillImage" />
      </cc:Work>
    </rdf:RDF>
  </metadata>
  <defs
     id="defs106" />
  <sodipodi:namedview
     inkscape:current-layer="svg102"
     inkscape:window-maximized="1"
     inkscape:window-y="0"
     inkscape:window-x="0"
     inkscape:cy="228.81966"
     inkscape:cx="503.51409"
     inkscape:zoom="1.4825"
     showgrid="false"
     id="namedview104"
     inkscape:window-height="1383"
     inkscape:window-width="2560"
     inkscape:pageshadow="2"
     inkscape:pageopacity="0"
     guidetolerance="10"
     gridtolerance="10"
     objecttolerance="10"
     borderopacity="1"
     inkscape:document-rotation="0"
     bordercolor="#666666"
     pagecolor="#ffffff" />
  <path
     id="path94"
     d="M0 0L0 400L500 400L500 0L0 0z"
     style="fill:#fefefe; stroke:none;" />
  <path
     id="path96"
     d="M42 108C42 116.726 38.6496 133.641 47.0548 139.258C53.256 143.401 65.7963 141 73 141C54.2917 173.175 46.6125 214.265 50.1698 251C50.8369 257.889 52.0578 264.457 54.3449 271C55.7371 274.983 58.1469 278.801 58.787 283C60.2516 292.606 59 303.286 59 313C59 317.361 58.0874 323.058 60.8935 326.772C63.3669 330.045 67.2785 329.98 71 329.999C79.3325 330.043 87.6674 330.017 96 330C99.991 329.992 104.332 330.207 106.991 326.656C109.45 323.37 108.999 318.864 109 315L109 292L389 292L389 315C389.001 318.863 388.549 323.37 391.009 326.656C393.668 330.207 398.009 329.992 402 330C410.333 330.017 418.668 330.043 427 329.999C430.722 329.98 434.633 330.045 437.106 326.772C439.913 323.058 439 317.361 439 313C439 303.286 437.748 292.606 439.213 283C439.853 278.801 442.263 274.983 443.655 271C445.942 264.457 447.163 257.889 447.83 251C451.387 214.265 443.708 173.175 425 141C432.204 141 444.744 143.401 450.945 139.258C459.35 133.641 456 116.726 456 108L422 108C418.062 108 411.862 109.146 408.379 106.972C405.961 105.463 404.521 102.306 402.997 100C399.813 95.1834 396.607 90.4078 392.866 86C380.742 71.716 365.744 60.1415 348 53.6952C324.971 45.329 301.122 46 277 46C248.668 46 220.332 45.8642 192 46.0008C163.028 46.1405 133.936 56.7412 113.039 77.0895C106.964 83.0054 101.707 89.9721 97.0008 97C94.8382 100.23 92.5413 105.781 88.7901 107.397C84.7157 109.151 78.3626 108 74 108L42 108z"
     style="fill:#ababab;stroke:none;fill-opacity:1" />
  <path
     id="path98"
     d="M86 148L412 148C409.072 137.834 402.772 128.225 397.694 119C392.461 109.493 386.478 99.8751 378.961 92C370.967 83.6265 362.412 76.2101 352 70.9699C321.114 55.4259 282.467 61 249 61C215.514 61 176.892 55.4226 146 70.9699C135.588 76.2101 127.033 83.6265 119.039 92C111.522 99.8751 105.539 109.493 100.306 119C95.2275 128.225 88.9285 137.834 86 148M103 176.465C98.731 177.233 94.5839 178.735 91.0147 181.224C65.5145 199.004 84.4277 238.546 114 232.621C117.523 231.915 121.071 230.26 123.999 228.2C147.954 211.344 132.298 171.193 103 176.465M136 176C137.468 179.291 139.525 182.983 143.09 184.397C147.074 185.977 152.781 185 157 185L185 185L318 185L344 185C347.64 185 352.527 185.809 355.829 183.972C358.87 182.281 360.647 179.033 362 176L136 176M385 176.518C381.118 177.34 377.268 178.955 374.015 181.224C348.458 199.045 367.378 238.556 397 232.621C412.516 229.512 422.492 212.06 418.211 197C415.073 185.956 406.073 178.603 395 176.755C391.635 176.193 388.378 175.802 385 176.518M146 193L147 201L351 201L352 193L146 193M147 209C146.499 211.686 146.117 214.27 146 217L352 217C351.883 214.27 351.501 211.686 351 209L147 209M136 233L362 233C360.322 230.284 358.506 226.718 355.675 225.028C352.302 223.013 346.772 224 343 224L313 224L182 224L154 224C150.47 224 145.487 223.139 142.325 225.028C139.494 226.718 137.678 230.284 136 233z"
     style="fill:#fefefe; stroke:none;" />
  <path
     id="path100"
     d="M42 355C45.9586 356.661 50.7397 356 55 356L79 356L163 356L455 356C451.523 353.522 447.087 352.87 443 351.71C434.706 349.356 426.336 347.308 418 345.116C400.933 340.628 383.477 333.797 366 331.3C350.887 329.141 334.266 331 319 331L195 331C174.674 331 153.204 329.009 133 331.174C123.23 332.22 113.432 335.954 104 338.576C83.53 344.266 62.8063 350.706 42 355z"
     style="fill:#ababab;stroke:none;fill-opacity:1" />
</svg>
