<?xml version="1.0" encoding="utf-8"?>
<!-- Generator: Adobe Illustrator 23.0.5, SVG Export Plug-In . SVG Version: 6.00 Build 0)  -->
<svg version="1.1" id="Laag_1" xmlns="http://www.w3.org/2000/svg" xmlns:xlink="http://www.w3.org/1999/xlink" x="0px" y="0px"
	 viewBox="0 0 923 721" style="enable-background:new 0 0 923 721;" xml:space="preserve">
<style type="text/css">
	.st0{fill:#FFFFFF;}
	.st1{fill:#ABABAB;}
</style>
<path class="st0" d="M0,0v721h923V0H0z"/>
<path class="st1" d="M203,77h63c-0.5-4.6-2.4-7.9-7-9.3c-3.7-1.2-8.1-0.7-12-0.7h-23c-4.4,0-9.9-0.9-14,0.7
	C205.8,69.4,203.8,72.9,203,77 M156,288c4.9-0.8,14.9-3.4,18-7.6c1.9-2.6,1-7.3,1-10.4v-25V122h570v165v27c0,4.4-0.7,9.7,0.4,14
	c1.9,7.3,12.2,18.3,18.6,22V159v-45c0-8.9,0.5-17.9-6.2-24.8c-9-9.3-25-6.2-36.8-6.2h-94H282h-85c-11.4,0-26-2.7-34.8,6.2
	c-6.3,6.3-6.2,14.5-6.2,22.8v31V288z"/>
<path class="st0" d="M458.1,98.1c-5.4,2.7-2.3,11.6,3.7,9.3C467.5,105.2,463.7,95.3,458.1,98.1z"/>
<path class="st1" d="M363,292h194c1.3-10.2,3.6-21.8,2.8-32c-0.4-5.9-2.7-11.5-4.5-17c-5.1-15.9-12.6-29.9-21.7-44
	c-5.3-8.2-10.2-20.7-18.7-26c-5.4-3.3-11.9-3-18-3h-30h-40c-6.5,0-14-1-20,2c-10.1,5-15.7,18.8-21.4,28c-8.6,13.8-15.9,27.4-20.9,43
	c-1.8,5.6-4,11.1-4.5,17C359.4,270.1,361.7,281.9,363,292z"/>
<path class="st0" d="M390,213c5.4,1.6,11.4,1,17,1h27h64c10.1,0,22.3,1.9,32-1c-3.2-7.7-8.1-14.8-12.5-22c-2-3.3-4.3-7.8-7.7-9.8
	c-5.5-3.1-15.7-1.2-21.8-1.2h-54c-6.6,0-17.9-2.2-23.8,1.2c-3.5,2-5.6,6.5-7.6,9.8C398.2,198.2,393.3,205.2,390,213z"/>
<path class="st1" d="M592,335h-67c4.2,5.8,11.6,15.7,18,19c4.2,2.1,10.4,1,15,1h34v25c9-3.8,14.8-8,25-8V228v-21c0-3.1,0.6-7-1-9.8
	c-2.2-3.8-8.2-5.6-12-7.4c-2.5-1.2-5.9-3.6-8.8-3.3c-3.8,0.4-3.2,5.8-3.2,8.5c0,8.7,0,17.3,0,26V335 M303,419h25v-64h134
	c2.5-8.5,8.9-13.3,14-20H328V222c0-9,0.1-18,0-27c0-3.2,0.2-7.5-4.1-7.7c-3.1-0.1-6.3,1.8-8.9,3c-3.5,1.7-8.9,3.4-11,6.9
	c-2,3.4-1,9-1,12.8v30V419 M375,212c-9.1,0-19.2-1.4-22,9c-0.7,2.6-1.6,6.1,0.6,8.3c1.6,1.6,4.2,1.7,6.4,1.7
	C368.4,231.1,372.8,219,375,212 M545,212c2.2,7.6,6.8,19.8,16,18.8c2-0.2,4.7-0.6,6-2.4c1.5-2.1,0.8-5.2,0.2-7.4
	C564.3,210.8,554,212,545,212z"/>
<path class="st0" d="M457.4,242c-4.7,3.2,0.6,9.8,5.1,6.8C467.3,245.7,461.9,239,457.4,242 M373.6,244c-3.4,2.5-7.2,16.2-2.4,18.4
	c3,1.4,7.6,0.6,10.8,0.6h23c3.4,0,8.7,1,11.7-1c3.8-2.6,1.9-12.2-1.9-13.9c-8.4-3.9-20.7-3.3-29.8-4.2
	C381.7,243.5,376.6,241.8,373.6,244 M432,280h56l5-26c0.5-2.8,2.1-7.8-0.6-10c-1.9-1.5-5.2-1-7.4-1h-18c0,5.6-4.5,12.7-10.8,8.3
	c-2.8-2-3.6-5.1-4.2-8.3h-17c-2.2,0-5.5-0.5-7.4,1c-2.5,2-1.1,6.4-0.7,9C428.1,262,430.3,271,432,280 M536,243.4
	c-7.7,1.1-15.3,1.8-23,2.9c-2.8,0.4-7.1,0.7-9.3,2.7c-3.3,3.1-3.7,12.4,1.3,13.7c8.5,2.3,20.1,0.3,28.9,0.3c4.3,0,9.7,0.9,13.9-0.3
	c5.9-1.6,2.2-14.7-0.9-18.1C544.6,241.9,539.1,243,536,243.4z"/>
<path class="st1" d="M303,516H199c-16,0-33.3,1.8-44.7-12c-9-11-6.3-26.8-6.3-40v-91c6.6-1,12.8-4.3,19-6.8c12-4.8,24-9.9,36-14.8
	c12.3-4.9,27.4-8.7,36.9-18.5c14-14.5,10.7-41.4-6.9-51.9c-13.7-8.2-28.6-2.9-42,2.5c-17.4,6.9-34.6,14.1-52,21
	c-10.7,4.3-21.4,8.6-32,13c-8.7,3.7-17,6.9-23.2,14.5c-9,11-7.7,24.6-9,38c-2.6,27-4.4,54-7,81c-0.7,7.7-1.3,15.3-2,23
	c-0.5,5.3-1.3,9.9,1.1,15c4,8.5,13.2,14.1,20.1,20.2c16.5,14.5,33.4,28.4,50,42.7c15.9,13.7,31.7,27.7,48,40.9
	c9,7.3,16.6,14.4,29,13c14.6-1.6,23.8-12.4,32.7-22.8c13.4-15.6,27.1-31,40.1-47C292.2,529.3,298.7,523.5,303,516 M363,294l0,15
	c0,2.4-0.3,5.4,1.6,7.3c2.3,2.3,6.5,1.7,9.4,1.7h21c3.2,0,7.1,0.4,9.4-2.3c3.8-4.5,1.6-16.1,1.6-21.7H363 M514,294
	c0,5.6-2.2,17.2,1.6,21.7c2.3,2.7,6.2,2.3,9.4,2.3h21c2.9,0,7,0.5,9.3-1.7c4.1-4.1,1.7-16.8,1.7-22.3H514 M672,348
	c-16.1-8.5-36.5-0.9-42.4,17c-2.1,6.3-0.8,12.6,0.4,19c-15.8-8.3-35.8-1.2-42.2,16c-2.4,6.6-1.4,13.3,0.2,20
	c-16.5-16.9-31.3-36-46.6-54c-8.4-10-16.4-22-28.4-27.7c-15.9-7.6-36.9,0.5-42.9,17.7c-2.5,7.3-1.2,16,1.6,23
	c3.4,8.5,10.2,15.3,16.2,22c6.7,7.5,13.1,15.3,19.6,23c20.4,24.1,41,48.1,61.6,72c10.9,12.7,23.4,25.2,32.9,39
	c-8.9-2.7-18.8-3.1-28-4.2c-13.5-1.6-27.8-4.9-41-0.6c-19.5,6.3-28.4,29.8-18,47.8c8.5,14.8,24.6,17.3,40,19.3
	c12.3,1.6,24.7,3,37,4.7c24.3,3.3,48.7,6,73,9.4c12.5,1.8,28.6,6.2,41,2.5c12-3.5,21.7-14.7,31-22.7c18.3-15.8,37-31.1,55-47.1
	c15.3-13.7,31.4-26.6,47-40c9.1-7.8,18.1-14.8,15.7-28.1c-1.1-6.3-6-11.2-9.9-16c-7.6-9.5-15.5-18.7-23.4-28
	c-21.9-26.1-44-52.1-66.2-78c-10.7-12.6-21-28.4-34.3-38.2c-16.1-12-40.2-9.2-48.5,11.2C669.8,333.6,671.1,341.2,672,348 M567,507
	c-7.5-13-19.9-24.7-29.8-36c-3.5-4-7.1-10.5-12.2-12.4c-3.3-1.2-7.5-0.6-11-0.6h-21h-72H175v-86c-4.9,1.4-16.2,4.2-18.4,9.2
	c-1.2,2.8-0.6,6.8-0.6,9.8v19c0,25.1-1.8,51,0.1,76c0.7,9.6,6.6,17.5,15.9,20.2c4.8,1.4,10.1,0.8,15,0.8h25h83H567z"/>
<path class="st0" d="M456,472.7c-13.2,5.1-5.4,25.2,8,20.2C477.3,488,469.1,467.7,456,472.7z"/>
<path class="st1" d="M47,496.5c-5.3,1.2-8.5,5.5-11.9,9.5c-6.8,7.9-14,15.8-20.5,24c-3.8,4.8-6.4,11-3.1,16.9
	c2.5,4.5,7.5,7.9,11.4,11.2c7.1,5.9,14,12,21,18c24.9,21.5,50,42.7,75,64.1c9.7,8.3,19.2,16.7,29,24.8c5.6,4.7,11.1,9.6,19,7.5
	c4.8-1.3,8.3-5.9,11.4-9.6c5.9-7,11.8-14,17.7-21c4.7-5.4,9.2-11.7,5.4-19c-2.2-4.4-6.9-7.6-10.5-10.7c-7.3-6.3-14.6-12.6-22-18.9
	c-24.4-20.6-49.1-41.2-73-62.4c-10.1-9-20.7-17.5-31-26.3C59.8,500.2,54.5,494.8,47,496.5 M866,496.7c-5.1,1.7-9,6.3-13,9.7
	c-9.1,7.6-18,15.5-27,23.2c-25,21.3-50,42.7-75,64.1l-21,17.9c-3.7,3.2-8.4,6.3-11,10.5c-3,4.8-2.1,10.4,1,15
	c6.8,10.1,16,20,24.2,29c3.8,4.2,8.7,8.7,14.8,7.5c6.1-1.3,10.5-6.2,15-10c8.3-7.1,16.8-14.1,25-21.4c25.6-22.7,52.2-44.3,78-66.8
	c6.9-6,14-12,21-17.9c3.6-3,8.3-6.3,10.5-10.5c2.3-4.3,1.6-9.8-0.9-13.9c-3.5-5.8-9-10.8-13.4-16c-4.7-5.5-9.1-11.9-14.4-16.8
	C876.2,496.9,870.8,495.1,866,496.7z"/>
</svg>
