<!DOCTYPE svg PUBLIC "-//W3C//DTD SVG 20010904//EN" "http://www.w3.org/TR/2001/REC-SVG-20010904/DTD/svg10.dtd">
<svg version="1.0" xmlns="http://www.w3.org/2000/svg" width="1000px" height="1080px" viewBox="0 0 9990 9510" preserveAspectRatio="xMidYMid meet">
<g id="layer101" fill="#80828c" stroke="none">
 <path d="M0 4755 l0 -4755 4995 0 4995 0 0 4755 0 4755 -4995 0 -4995 0 0 -4755z"/>
 </g>
<g id="layer102" fill="#979a9f" stroke="none">
 <path d="M0 4755 l0 -4755 4995 0 4995 0 0 4755 0 4755 -4995 0 -4995 0 0 -4755z m2254 3569 c5 -14 4 -15 -9 -4 -17 14 -19 20 -6 20 5 0 12 -7 15 -16z m-574 -79 c-7 -9 -15 -13 -19 -10 -3 3 1 10 9 15 21 14 24 12 10 -5z m6905 -215 c3 -5 4 -10 1 -10 -3 0 -8 5 -11 10 -3 6 -4 10 -1 10 3 0 8 -4 11 -10z m-6205 -224 c0 -3 -5 -8 -12 -12 -7 -4 -8 -3 -4 4 7 12 16 16 16 8z m-390 -330 c0 -3 -5 -8 -12 -12 -7 -4 -8 -3 -4 4 7 12 16 16 16 8z m6315 -66 c3 -5 4 -10 1 -10 -3 0 -8 5 -11 10 -3 6 -4 10 -1 10 3 0 8 -4 11 -10z m-6655 -224 c0 -3 -5 -8 -12 -12 -7 -4 -8 -3 -4 4 7 12 16 16 16 8z m7710 -196 c0 -5 -5 -10 -11 -10 -5 0 -7 5 -4 10 3 6 8 10 11 10 2 0 4 -4 4 -10z m-8210 -54 c0 -3 -5 -8 -12 -12 -7 -4 -8 -3 -4 4 7 12 16 16 16 8z m-50 -46 c0 -5 -5 -10 -11 -10 -5 0 -7 5 -4 10 3 6 8 10 11 10 2 0 4 -4 4 -10z m5140 6 c0 -3 -5 -8 -12 -12 -7 -4 -8 -3 -4 4 7 12 16 16 16 8z m-70 -80 c0 -3 -5 -8 -12 -12 -7 -4 -8 -3 -4 4 7 12 16 16 16 8z m-330 -226 c0 -5 -5 -10 -11 -10 -5 0 -7 5 -4 10 3 6 8 10 11 10 2 0 4 -4 4 -10z m2630 -634 c0 -3 -5 -8 -12 -12 -7 -4 -8 -3 -4 4 7 12 16 16 16 8z m-3230 -230 c0 -3 -5 -8 -12 -12 -7 -4 -8 -3 -4 4 7 12 16 16 16 8z m1095 -146 c3 -5 4 -10 1 -10 -3 0 -8 5 -11 10 -3 6 -4 10 -1 10 3 0 8 -4 11 -10z m-515 -274 c0 -3 -5 -8 -12 -12 -7 -4 -8 -3 -4 4 7 12 16 16 16 8z m-4505 -246 c3 -5 4 -10 1 -10 -3 0 -8 5 -11 10 -3 6 -4 10 -1 10 3 0 8 -4 11 -10z m6325 -74 c0 -3 -5 -8 -12 -12 -7 -4 -8 -3 -4 4 7 12 16 16 16 8z m-2633 -683 c-4 -3 -10 -3 -14 0 -3 4 0 7 7 7 7 0 10 -3 7 -7z m48 -23 c3 -5 4 -10 1 -10 -3 0 -8 5 -11 10 -3 6 -4 10 -1 10 3 0 8 -4 11 -10z m-2590 -1770 c3 -5 4 -10 1 -10 -3 0 -8 5 -11 10 -3 6 -4 10 -1 10 3 0 8 -4 11 -10z"/>
 </g>
<g id="layer103" fill="#eff0f2" stroke="none">
 <path d="M0 4755 l0 -4755 4995 0 4995 0 0 4755 0 4755 -4995 0 -4995 0 0 -4755z m2098 3743 c44 -32 301 -336 319 -377 17 -39 11 -86 -15 -117 -9 -12 -233 -206 -497 -431 -264 -225 -583 -498 -710 -606 -249 -213 -276 -230 -337 -204 -51 22 -344 363 -354 412 -14 75 -62 29 946 890 135 115 304 259 375 320 72 62 139 117 150 123 33 19 89 14 123 -10z m5937 3 c17 -10 161 -131 320 -268 160 -137 476 -407 703 -602 227 -194 419 -366 427 -381 20 -38 19 -79 -3 -113 -9 -15 -80 -101 -157 -191 -113 -133 -148 -168 -182 -182 -38 -15 -47 -15 -78 -3 -19 8 -151 113 -292 234 -142 122 -447 382 -678 579 -231 197 -441 378 -466 402 -54 52 -68 95 -45 146 18 41 286 357 323 380 36 23 90 23 128 -1z m-528 -595 c27 -15 77 -51 110 -79 32 -29 255 -218 493 -422 780 -665 793 -677 818 -725 43 -85 27 -150 -65 -264 -187 -232 -1219 -1438 -1254 -1465 -92 -71 -235 -95 -316 -53 -71 37 -157 129 -173 185 -12 45 -9 141 6 180 5 15 3 15 -24 2 -72 -37 -171 -37 -239 -2 -57 30 -150 129 -162 172 -13 49 -14 119 -2 163 11 37 10 37 -44 17 -57 -20 -163 -19 -202 3 -58 31 -145 114 -164 156 -21 46 -26 157 -9 201 6 15 6 25 1 23 -4 -1 -133 -149 -285 -328 -363 -426 -398 -463 -471 -497 -48 -22 -74 -28 -130 -28 -82 1 -121 18 -203 90 -76 68 -97 112 -97 210 0 118 20 154 230 400 169 198 762 892 996 1165 59 69 106 126 105 127 -1 1 -107 -11 -236 -28 -280 -37 -374 -40 -450 -14 -95 31 -161 85 -196 160 -34 72 -34 218 0 290 46 100 163 177 295 197 395 59 1498 197 1552 194 49 -2 79 -10 116 -30z m-4925 -71 c115 -30 137 -50 504 -479 l343 -401 -667 -5 -667 -5 -50 -27 c-65 -34 -127 -101 -151 -164 -18 -46 -19 -83 -19 -638 l0 -590 412 -167 c227 -92 433 -182 458 -199 90 -62 153 -183 143 -275 -8 -66 -58 -182 -99 -229 -58 -66 -124 -91 -234 -90 l-90 0 -285 116 c-157 64 -404 164 -550 223 -146 60 -281 118 -301 130 -55 35 -126 120 -143 173 -15 46 -127 1269 -128 1394 0 100 -63 40 822 793 161 138 334 285 384 328 147 126 197 144 318 112z m3476 -985 c-1 -5 -91 -113 -198 -239 l-195 -230 -1757 0 -1758 -1 0 -430 c0 -236 -3 -430 -7 -430 -4 0 -45 15 -90 33 l-83 32 0 558 c0 625 -3 597 72 662 22 18 56 38 76 43 50 13 3945 16 3940 2z m-2378 -1195 l0 -325 668 0 668 0 13 -36 c7 -20 38 -62 67 -92 30 -31 54 -57 54 -59 0 -2 -331 -3 -735 -3 l-735 0 0 -724 c0 -398 -3 -731 -6 -740 -10 -26 -38 -19 -144 34 l-100 50 0 1110 0 1110 125 0 125 0 0 -325z m2734 -120 c28 -13 74 -27 103 -31 l53 -6 0 -869 0 -869 -100 -50 c-106 -53 -134 -60 -144 -34 -3 9 -6 342 -6 740 l0 724 -330 0 -330 0 82 95 83 95 248 0 247 0 0 131 0 131 23 -16 c12 -9 44 -27 71 -41z m1618 -1507 c-2 -1236 -3 -1253 -23 -1294 -22 -47 -66 -84 -118 -102 -26 -9 -741 -12 -2895 -12 -2770 0 -2862 1 -2902 19 -48 22 -90 63 -110 108 -12 27 -14 189 -14 977 l0 944 90 -36 90 -36 0 -793 0 -793 2850 0 2850 0 0 1033 0 1033 87 102 c47 56 89 102 92 102 3 0 5 -563 3 -1252z m-3582 912 c6 -11 10 -60 8 -113 l-3 -92 -210 0 -210 0 -3 99 c-2 64 1 103 9 112 9 11 51 14 205 14 183 0 194 -1 204 -20z m1509 6 c8 -9 11 -48 9 -112 l-3 -99 -210 0 -210 0 -3 99 c-2 64 1 103 9 112 17 20 391 20 408 0z m15 -291 c3 -25 9 -101 12 -169 7 -119 6 -126 -26 -232 -45 -152 -107 -277 -250 -507 -104 -167 -130 -202 -165 -223 l-42 -24 -503 0 -503 0 -42 24 c-35 21 -61 56 -165 223 -143 230 -205 355 -250 507 -32 106 -33 113 -26 232 3 68 9 144 12 169 l7 45 967 0 967 0 7 -45z m-1874 -642 c25 -49 46 -92 48 -96 5 -11 -157 3 -180 15 -23 11 -54 116 -41 137 12 18 44 29 93 30 35 1 36 -1 80 -86z m1939 78 c40 -11 45 -31 27 -94 -9 -31 -24 -61 -34 -65 -9 -5 -54 -13 -100 -16 l-83 -7 48 95 c47 95 48 96 83 95 19 -1 46 -4 59 -8z m-2979 -1541 c0 -32 -33 -70 -68 -79 -48 -14 -436 -14 -484 -1 -39 11 -68 42 -68 72 0 17 20 18 310 18 210 0 310 -3 310 -10z"/>
 <path d="M4924 6696 c-29 -29 -34 -41 -34 -79 0 -54 26 -91 75 -107 72 -24 145 27 145 101 0 75 -43 119 -115 119 -29 0 -45 -8 -71 -34z"/>
 <path d="M4954 2845 c-9 -14 -13 -32 -9 -45 15 -47 86 -50 107 -5 27 59 -62 105 -98 50z"/>
 <path d="M4731 4591 c-21 -13 -84 -340 -70 -358 9 -10 45 -13 140 -13 l129 0 0 29 c0 32 39 71 70 71 31 0 70 -39 70 -71 l0 -29 129 0 c95 0 131 3 140 13 14 18 -49 345 -70 358 -8 5 -129 9 -269 9 -140 0 -261 -4 -269 -9z"/>
 <path d="M4086 4404 c-7 -19 30 -164 47 -181 15 -14 415 32 434 51 7 6 13 40 15 76 l3 65 -246 3 c-221 2 -247 1 -253 -14z"/>
 <path d="M5415 4410 c-9 -15 6 -128 19 -139 18 -14 419 -61 433 -50 16 14 55 163 47 183 -5 14 -34 16 -249 16 -150 0 -246 -4 -250 -10z"/>
 <path d="M4962 4278 c-20 -20 -14 -56 13 -74 23 -15 27 -15 50 0 44 29 28 86 -25 86 -14 0 -31 -5 -38 -12z"/>
 <path d="M4305 3920 c-9 -14 164 -299 194 -319 22 -14 76 -16 501 -16 425 0 479 2 501 16 30 20 203 305 194 319 -4 6 -251 10 -695 10 -444 0 -691 -4 -695 -10z"/>
 </g>

</svg>