<!DOCTYPE svg PUBLIC "-//W3C//DTD SVG 20010904//EN" "http://www.w3.org/TR/2001/REC-SVG-20010904/DTD/svg10.dtd">
<svg version="1.0" xmlns="http://www.w3.org/2000/svg" width="1000px" height="1080px" viewBox="0 0 9990 8500" preserveAspectRatio="xMidYMid meet">
<g id="layer101" fill="#010101" stroke="none">
 <path d="M0 4250 l0 -4250 4995 0 4995 0 0 4250 0 4250 -4995 0 -4995 0 0 -4250z"/>
 </g>
<g id="layer102" fill="#ffffff" stroke="none">
 <path d="M0 4250 l0 -4250 4995 0 4995 0 0 4250 0 4250 -4995 0 -4995 0 0 -4250z m6200 3475 c97 -25 238 -97 322 -163 231 -184 357 -506 304 -772 -44 -218 -221 -565 -503 -987 -119 -179 -323 -463 -333 -463 -10 0 -183 238 -308 423 -241 357 -422 688 -499 912 -36 105 -37 116 -37 240 0 155 20 241 89 375 121 233 351 404 607 450 76 13 281 5 358 -15z m-1590 -1657 l0 -923 24 -52 c66 -142 261 -172 367 -56 67 71 64 44 67 633 l3 534 58 -105 c87 -157 141 -245 267 -436 l114 -172 0 -280 0 -279 313 -283 c490 -444 687 -648 687 -713 0 -38 -422 -1453 -462 -1549 -52 -126 -60 -131 -198 -135 l-106 -4 4 700 5 700 -46 49 c-25 26 -83 70 -129 98 -97 58 -339 163 -523 228 -222 78 -199 77 -360 22 -401 -135 -677 -270 -748 -367 -19 -26 -20 -44 -18 -727 l2 -701 -93 1 c-147 2 -157 8 -207 125 -21 49 -137 422 -256 828 l-218 740 19 34 c43 79 171 207 594 591 129 118 270 248 313 290 l77 76 0 1027 0 1028 225 0 225 0 0 -922z"/>
 <path d="M5624 7220 c-63 -25 -114 -141 -121 -275 -14 -252 104 -427 220 -325 102 89 125 340 48 507 -40 84 -90 116 -147 93z"/>
 </g>

</svg>