<?xml version="1.0" standalone="yes"?>
<svg xmlns="http://www.w3.org/2000/svg" width="415" height="602">
<path style="fill:#ffffff; stroke:none;" d="M0 0L0 602L415 602L415 0L0 0z"/>
<path style="fill:#aaaaaa; stroke:none;" d="M132 515L177 515L177 379L177 344C177 337.276 176.359 330.004 180.005 324C190.093 307.389 216.588 308.516 221.468 329C224.021 339.719 222 353.002 222 364L222 436C227.451 432.43 230.225 423.587 233.427 418C240.632 405.433 248.321 393.051 256.355 381C259.987 375.552 265.996 369.727 266.867 363C268.495 350.418 267 336.691 267 324C267 319.286 265.712 312.325 268.603 308.285C275.5 298.65 287.218 290.735 296 282.831C311.891 268.529 327.463 253.962 342.907 239.184C349.574 232.805 356.522 226.38 362.1 219C364.488 215.84 367.281 212.14 367.346 208C367.418 203.379 365.03 198.368 363.72 194C361.326 186.018 359.115 177.982 356.72 170C348.633 143.046 340.613 116.051 332.859 89C329.691 77.9495 326.87 66.6033 322.424 56C320.758 52.0245 319.531 47.4109 316.606 44.1335C310.681 37.4935 298.019 40 290 40L290 140C290 149.051 290.997 157.987 291 167C291.002 171.297 291.529 176.034 289.543 180C282.983 193.099 262.637 200.282 250 205.719C239.18 210.374 228.127 214.494 217 218.344C211.993 220.076 206.352 222.899 201 223.157C193.481 223.52 183.975 218.602 177 216.053C161.647 210.443 146.628 204.58 132 197.247C124.695 193.585 115.678 189.076 111.148 181.961C108.468 177.75 109 172.771 109 168L109 142L109 40C101.113 40 88.3471 37.4663 82.6381 44.2137C79.8735 47.4813 78.5615 52.0843 77 56C72.8408 66.4295 70.2686 77.2896 66.9753 88C59.0085 113.91 51.9419 140.091 43.9753 166C41.1162 175.299 38.3965 184.65 35.7091 194C34.4345 198.435 32.176 203.344 32.1481 208C32.12 212.706 35.2806 216.525 38.0949 220C43.296 226.423 49.1495 232.177 55 237.999C71.3065 254.227 88.9365 269.397 106 284.83C111.05 289.398 115.897 294.213 121 298.715C124.456 301.763 128.859 304.775 130.972 309C133.413 313.879 132 321.672 132 327L132 368L132 515M314 348C307.31 358.743 298.979 368.613 291.72 379C274.964 402.977 258.848 427.81 245.753 454C232.792 479.922 224.541 506.557 234.698 535C238.541 545.759 245.057 555.852 253.015 564C288.855 600.696 349.937 598.318 382.192 558C388.447 550.181 392.87 541.471 395.999 532C399.54 521.281 400.7 510.265 399.91 499C398.897 484.547 391.718 470.941 385.858 458C373.186 430.015 355.408 404.172 337.975 379C330.83 368.682 322.203 358.888 316 348L314 348z"/>
<path style="fill:#ffffff; stroke:none;" d="M279.001 474.758C273.874 476.573 270.823 482.193 269.09 487C265.037 498.248 264.895 511.652 268.674 523C270.983 529.933 276.022 539.68 284.996 536.257C290.06 534.325 292.974 528.829 294.641 524C298.402 513.107 298.324 498.953 294.783 488C292.733 481.66 287.248 471.838 279.001 474.758z"/>
</svg>
